<?xml version="1.0" standalone="no"?>
<!DOCTYPE svg PUBLIC "-//W3C//DTD SVG 20010904//EN"
 "http://www.w3.org/TR/2001/REC-SVG-20010904/DTD/svg10.dtd">
<svg version="1.0" xmlns="http://www.w3.org/2000/svg"
 width="1440.000000pt" height="1440.000000pt" viewBox="0 0 1440.000000 1440.000000"
 preserveAspectRatio="xMidYMid meet">
<metadata>
Created by potrace 1.11, written by Peter Selinger 2001-2013
</metadata>
<g transform="translate(0.000000,1440.000000) scale(0.100000,-0.100000)"
fill="#000000" stroke="none">
<path d="M3842 10695 c3 -14 2 -25 -3 -25 -4 0 -4 -13 1 -30 5 -16 6 -30 2
-30 -8 0 -7 -83 2 -105 3 -8 1 -17 -4 -20 -6 -3 -6 -15 0 -30 6 -15 6 -27 0
-30 -6 -3 -6 -15 0 -30 6 -15 6 -27 0 -30 -6 -3 -6 -15 0 -30 6 -15 6 -27 0
-30 -6 -3 -6 -15 0 -30 6 -15 6 -27 0 -30 -6 -3 -6 -15 0 -30 6 -15 6 -27 0
-30 -6 -3 -6 -15 0 -30 6 -15 6 -27 0 -30 -6 -3 -6 -15 0 -30 6 -15 6 -27 0
-30 -6 -3 -6 -15 0 -30 6 -15 6 -27 0 -30 -6 -3 -6 -15 0 -30 6 -15 6 -27 0
-30 -6 -3 -6 -15 0 -30 6 -15 6 -27 0 -30 -6 -3 -6 -15 0 -30 6 -15 6 -27 0
-30 -6 -3 -6 -15 0 -30 6 -15 6 -27 0 -30 -6 -3 -6 -15 0 -30 6 -15 6 -27 0
-30 -6 -3 -6 -15 0 -30 6 -15 6 -27 0 -30 -6 -3 -6 -15 0 -30 6 -15 6 -27 0
-30 -6 -3 -6 -15 0 -30 6 -15 6 -27 0 -30 -6 -3 -6 -15 0 -30 6 -15 6 -27 0
-30 -6 -3 -6 -15 0 -30 6 -15 6 -27 0 -30 -6 -3 -6 -15 0 -30 6 -15 6 -27 0
-30 -6 -3 -6 -15 0 -30 6 -15 6 -27 0 -30 -6 -3 -6 -15 0 -30 6 -15 6 -27 0
-30 -6 -3 -6 -15 0 -30 6 -15 6 -27 0 -30 -6 -3 -6 -15 0 -30 6 -15 6 -27 0
-30 -6 -3 -6 -15 0 -30 6 -15 6 -27 0 -30 -6 -3 -6 -15 0 -30 6 -15 6 -27 0
-30 -6 -3 -6 -15 0 -30 6 -15 6 -27 0 -30 -6 -3 -6 -15 0 -30 6 -15 6 -27 0
-30 -6 -3 -6 -15 0 -30 6 -15 6 -27 0 -30 -6 -3 -6 -15 0 -30 6 -15 6 -27 0
-30 -6 -3 -6 -15 0 -30 6 -15 6 -27 0 -30 -6 -3 -6 -15 0 -30 6 -15 6 -27 0
-30 -6 -3 -6 -15 0 -30 6 -15 6 -27 0 -30 -6 -3 -6 -15 0 -30 6 -15 6 -27 0
-30 -6 -3 -6 -15 0 -30 6 -15 6 -27 0 -30 -6 -3 -6 -15 0 -30 6 -15 6 -27 0
-30 -6 -3 -6 -15 0 -30 6 -15 6 -27 0 -30 -6 -3 -6 -15 0 -30 6 -15 6 -27 0
-30 -6 -3 -6 -15 0 -30 6 -15 6 -27 0 -30 -6 -3 -6 -15 0 -30 6 -15 6 -27 0
-30 -6 -3 -6 -15 0 -30 6 -15 6 -27 0 -30 -5 -3 -6 -16 -2 -28 8 -24 7 -79 -2
-103 -3 -8 -1 -14 4 -14 5 0 5 -13 0 -30 -5 -17 -5 -32 0 -35 5 -3 6 -15 0
-29 -4 -12 -4 -29 0 -36 5 -8 5 -21 0 -30 -5 -9 -5 -22 0 -30 5 -8 5 -21 0
-30 -5 -9 -5 -22 0 -29 4 -8 4 -27 0 -42 -5 -16 -5 -29 0 -29 5 0 5 -13 0 -30
-5 -17 -5 -32 0 -35 5 -3 6 -15 0 -29 -4 -12 -4 -29 0 -36 5 -8 5 -21 0 -30
-5 -9 -5 -22 0 -30 5 -8 5 -21 0 -30 -5 -9 -5 -22 0 -29 4 -8 4 -27 0 -42 -5
-16 -5 -29 0 -29 5 0 5 -13 0 -30 -5 -17 -5 -32 0 -35 5 -3 6 -15 0 -29 -4
-12 -4 -29 0 -36 5 -8 5 -21 0 -30 -5 -9 -5 -22 0 -30 5 -8 5 -21 0 -30 -5 -9
-5 -22 0 -29 4 -8 4 -27 0 -42 -5 -16 -5 -29 0 -29 5 0 5 -13 0 -30 -5 -17 -5
-32 0 -35 5 -3 6 -15 0 -29 -4 -12 -4 -29 0 -36 5 -8 5 -21 0 -30 -5 -9 -5
-22 0 -30 5 -8 6 -18 3 -23 -7 -12 -8 -96 0 -103 3 -3 2 -17 -3 -30 -6 -14 -6
-26 0 -29 6 -3 6 -15 0 -30 -6 -15 -6 -27 0 -30 6 -3 6 -15 0 -30 -6 -15 -6
-27 0 -30 6 -3 6 -15 0 -30 -6 -15 -6 -27 0 -30 6 -3 6 -15 0 -30 -6 -15 -6
-27 0 -30 6 -3 6 -15 0 -30 -6 -15 -6 -27 0 -30 6 -3 6 -15 0 -30 -6 -15 -6
-27 0 -30 6 -3 6 -15 0 -30 -6 -15 -6 -27 0 -30 6 -3 6 -15 0 -30 -6 -15 -6
-27 0 -30 6 -3 6 -15 0 -30 -6 -15 -6 -27 0 -30 6 -3 6 -15 0 -30 -6 -15 -6
-27 0 -30 6 -3 6 -15 0 -30 -6 -15 -6 -27 0 -30 6 -3 6 -15 0 -30 -6 -15 -6
-27 0 -30 6 -3 6 -15 0 -30 -6 -15 -6 -27 0 -30 6 -3 6 -15 0 -30 -6 -15 -6
-27 0 -30 6 -3 6 -15 0 -30 -6 -15 -6 -27 0 -30 6 -3 6 -15 0 -30 -5 -14 -5
-27 0 -30 5 -3 5 -18 0 -35 -5 -19 -5 -30 1 -30 6 0 7 -5 3 -11 -8 -13 -9
-1237 -1 -1246 4 -3 2 -13 -3 -22 -5 -10 -5 -23 0 -31 5 -8 5 -21 0 -30 -5 -9
-5 -22 -1 -29 5 -7 5 -27 1 -45 -4 -18 -3 -42 1 -54 5 -12 4 -24 -1 -27 -6 -3
-6 -15 0 -29 5 -13 6 -27 3 -30 -8 -7 -7 -176 1 -183 2 -3 1 -16 -4 -29 -6
-14 -6 -26 0 -29 5 -3 6 -16 1 -28 -4 -12 -5 -33 -1 -47 6 -25 7 -25 106 -24
104 1 258 13 334 27 14 3 45 8 70 12 43 7 60 10 98 19 9 2 49 11 87 20 108 25
283 82 402 130 106 43 263 115 273 126 3 3 39 23 80 44 70 37 198 115 224 137
6 5 31 23 56 39 143 92 498 417 610 559 19 24 40 49 46 55 6 7 53 68 103 137
50 68 95 129 101 136 5 7 10 15 10 18 0 4 13 25 29 48 41 60 149 256 204 370
52 107 138 314 152 367 3 8 14 42 25 75 21 60 69 224 76 258 2 10 6 28 10 40
4 12 8 29 9 37 1 8 7 40 13 70 7 30 14 66 16 80 3 14 5 25 6 25 1 0 3 12 5 26
2 15 6 43 9 63 3 20 8 51 11 68 9 53 24 225 30 335 1 34 6 66 10 72 3 6 3 11
-2 11 -4 0 -7 19 -5 42 1 24 2 58 2 76 -1 17 -1 39 0 47 0 35 0 48 -1 100 -1
31 1 58 4 61 3 4 2 16 -3 28 -4 13 -5 28 0 35 4 7 4 28 0 47 -4 19 -4 36 0 39
5 3 5 19 0 35 -5 16 -5 32 -1 35 5 2 5 22 1 44 -4 22 -4 45 1 52 4 7 4 22 -1
34 -5 12 -5 27 0 34 4 7 4 28 0 47 -4 19 -4 36 0 39 5 3 5 18 0 34 -4 16 -5
32 -2 36 3 3 5 27 3 53 -2 44 -2 54 0 85 0 6 -1 33 -3 60 -2 26 0 47 4 47 4 0
3 13 -2 30 -5 17 -5 32 0 35 5 3 6 15 1 28 -5 13 -5 30 -1 38 5 8 5 21 0 28
-4 8 -4 27 0 42 5 16 6 29 2 29 -4 0 -7 16 -7 35 0 19 3 35 7 35 4 0 3 13 -2
30 -5 18 -5 32 1 36 5 3 7 10 4 15 -8 12 -12 99 -5 99 7 0 4 79 -3 86 -3 3 -1
19 3 35 5 16 6 29 2 29 -4 0 -7 16 -7 35 0 19 3 35 7 35 4 0 3 13 -2 28 -4 16
-4 35 1 43 4 8 4 21 -1 29 -4 7 -4 24 0 36 5 13 5 26 1 29 -5 3 -6 20 -2 37 4
18 4 48 0 66 -3 17 -3 32 2 32 4 0 4 12 0 28 -4 15 -5 38 -1 52 4 14 3 34 -1
46 -4 11 -3 27 1 34 5 8 6 18 4 22 -8 13 -10 98 -2 98 4 0 3 13 -2 30 -5 17
-5 32 0 35 5 3 6 15 1 28 -5 13 -5 30 -1 38 5 8 5 21 0 28 -4 8 -4 27 0 42 5
16 6 29 2 29 -4 0 -7 16 -7 35 0 19 3 35 7 35 4 0 3 13 -2 30 -5 18 -5 32 1
36 5 3 7 10 4 15 -8 12 -12 99 -5 99 7 0 4 79 -3 86 -3 3 -1 19 3 35 5 16 6
29 2 29 -4 0 -7 16 -7 35 0 19 3 35 7 35 4 0 3 13 -2 28 -4 16 -4 35 1 43 4 8
4 21 -1 29 -4 7 -4 24 0 36 5 13 5 26 1 29 -5 3 -6 20 -2 37 4 18 4 48 0 66
-3 18 -2 32 3 32 5 0 6 5 3 10 -8 14 -10 118 -2 126 3 3 2 16 -3 28 -4 13 -5
29 0 36 25 41 76 40 -1602 40 l-1600 0 4 -25z"/>
<path d="M10346 10713 c-1 -2 -31 -5 -67 -8 -35 -2 -82 -7 -104 -10 -61 -9
-197 -33 -225 -40 -14 -3 -34 -8 -45 -9 -115 -20 -400 -115 -550 -185 -44 -21
-99 -46 -122 -56 -24 -10 -43 -22 -43 -26 0 -4 -12 -10 -27 -14 -14 -3 -38
-15 -51 -26 -14 -10 -30 -19 -38 -19 -7 0 -14 -4 -16 -9 -1 -5 -10 -11 -18
-13 -8 -2 -17 -5 -20 -8 -3 -3 -52 -37 -110 -75 -92 -61 -157 -107 -196 -140
-7 -5 -27 -21 -45 -35 -18 -14 -37 -29 -44 -35 -6 -5 -48 -44 -95 -85 -101
-90 -231 -224 -325 -337 -70 -83 -175 -222 -175 -232 0 -5 -4 -11 -8 -13 -11
-4 -122 -174 -122 -186 0 -6 -3 -12 -8 -14 -19 -8 -242 -441 -242 -471 0 -3
-7 -21 -15 -41 -8 -20 -16 -39 -16 -43 -1 -5 -6 -17 -12 -28 -6 -11 -12 -24
-14 -30 -5 -21 -35 -111 -43 -130 -40 -96 -124 -446 -144 -600 -3 -22 -8 -51
-11 -64 -2 -13 -7 -53 -11 -90 -3 -36 -8 -82 -10 -101 -3 -31 -16 -299 -15
-325 0 -5 1 -31 3 -58 2 -26 -1 -47 -5 -47 -5 0 -5 -5 -2 -10 4 -6 8 -47 10
-93 4 -85 13 -187 20 -247 3 -19 7 -55 10 -80 8 -65 42 -265 45 -265 2 0 5
-13 13 -60 3 -16 13 -59 22 -95 9 -36 18 -72 20 -80 2 -8 8 -27 14 -42 6 -16
8 -28 5 -28 -4 0 -2 -6 3 -12 8 -10 30 -79 39 -118 0 -3 6 -18 12 -33 7 -16
12 -30 12 -33 0 -34 223 -524 243 -532 4 -2 7 -8 7 -13 0 -9 128 -229 140
-239 3 -3 19 -25 35 -50 16 -25 32 -47 35 -50 3 -3 17 -21 30 -40 13 -19 29
-40 35 -46 5 -6 17 -22 25 -34 59 -88 294 -338 419 -447 24 -21 57 -49 72 -63
34 -30 33 -29 134 -106 182 -138 335 -229 574 -344 46 -22 88 -40 93 -40 4 0
27 -9 51 -19 39 -17 75 -32 87 -36 3 -1 43 -14 90 -29 47 -15 92 -29 100 -31
8 -2 40 -11 70 -20 30 -8 71 -18 90 -21 19 -3 38 -8 41 -10 4 -2 27 -6 50 -9
24 -3 60 -10 79 -15 19 -5 60 -11 90 -15 30 -3 69 -7 85 -10 17 -2 91 -7 166
-10 117 -5 137 -4 142 9 4 9 2 18 -3 21 -6 3 -6 15 0 29 5 13 6 26 4 29 -9 9
-10 70 -3 100 4 15 4 27 -1 27 -5 0 -5 13 0 30 5 17 5 32 0 35 -5 3 -6 15 0
29 4 12 4 29 0 36 -5 8 -5 21 0 30 5 9 5 22 0 30 -5 8 -6 18 -3 23 9 14 9 69
1 94 -4 12 -3 25 2 28 6 3 6 15 0 29 -5 13 -6 27 -3 30 3 3 6 89 6 191 0 102
-3 188 -6 191 -3 3 -2 17 3 30 5 13 6 26 1 28 -4 3 -5 25 -1 49 3 25 3 54 -1
65 -5 12 -4 24 1 27 6 3 6 15 0 29 -5 13 -6 27 -3 30 3 3 6 89 6 191 0 102 -3
188 -6 191 -3 3 -2 17 3 30 5 13 6 26 1 28 -4 3 -5 25 -1 49 3 25 3 54 -1 65
-5 12 -4 24 1 27 6 3 6 15 0 29 -5 13 -6 27 -3 30 3 3 6 89 6 191 0 102 -3
188 -6 191 -3 3 -2 17 3 30 5 13 6 26 1 28 -4 3 -5 25 -1 49 3 25 3 54 -1 65
-5 12 -4 24 1 27 6 3 6 15 0 29 -5 13 -6 27 -3 30 7 7 7 375 0 382 -3 3 -2 17
3 30 5 13 6 26 1 28 -4 3 -5 25 -1 49 3 25 3 54 -1 65 -5 12 -4 24 1 27 6 3 6
15 0 29 -5 13 -6 27 -3 30 3 3 6 89 6 191 0 102 -3 188 -6 191 -3 3 -2 17 3
30 5 13 6 26 1 28 -4 3 -5 25 -1 49 3 25 3 54 -1 65 -5 12 -4 24 1 27 6 3 6
15 0 29 -5 13 -6 27 -3 30 7 7 7 375 0 382 -3 3 -2 17 3 30 5 13 6 26 1 28 -4
3 -5 25 -1 49 3 25 3 54 -1 65 -5 12 -4 24 1 27 6 3 6 15 0 29 -5 13 -6 27 -3
30 3 3 6 89 6 191 0 102 -3 188 -6 191 -3 3 -2 17 3 30 5 13 6 26 1 28 -4 3
-5 25 -1 49 3 25 3 54 -1 65 -5 12 -4 24 1 27 6 3 6 15 0 29 -5 13 -6 27 -3
30 3 3 6 89 6 191 0 102 -3 188 -6 191 -3 3 -2 17 3 30 5 13 6 26 1 28 -4 3
-5 25 -1 49 3 25 3 54 -1 65 -5 12 -4 24 1 27 6 3 6 15 0 29 -5 13 -6 27 -3
30 7 7 7 375 0 382 -3 3 -2 17 3 30 5 13 6 26 1 28 -4 3 -5 25 -1 49 3 25 3
54 -1 65 -5 12 -4 24 1 27 6 3 6 15 0 29 -5 13 -6 27 -3 30 3 3 6 89 6 191 0
102 -3 188 -6 191 -3 3 -2 17 3 30 5 13 6 25 1 28 -4 3 -5 28 -1 55 3 28 3 56
-1 63 -4 6 -3 22 1 34 5 13 5 26 1 29 -5 3 -7 14 -4 25 5 19 1 20 -102 17 -59
-1 -108 -3 -109 -4z"/>
<path d="M12648 10715 c-1 -2 -25 -6 -53 -9 -135 -16 -365 -78 -402 -108 -7
-6 -13 -8 -13 -5 0 4 -26 -7 -57 -23 -32 -17 -63 -30 -70 -30 -7 0 -13 -4 -13
-10 0 -5 -11 -12 -25 -16 -14 -3 -25 -10 -25 -14 0 -5 -10 -12 -22 -16 -13 -4
-25 -9 -28 -13 -3 -3 -25 -19 -50 -36 -121 -79 -273 -226 -372 -360 -21 -27
-41 -54 -45 -60 -30 -38 -157 -275 -148 -275 3 0 -2 -14 -10 -31 -24 -45 -62
-169 -79 -257 -23 -112 -25 -132 -31 -218 -9 -130 -10 -164 -5 -164 3 0 5 -24
6 -53 0 -28 4 -74 8 -102 4 -27 9 -68 12 -90 3 -21 8 -43 11 -48 3 -4 7 -22
10 -39 8 -55 64 -212 105 -298 45 -94 135 -243 149 -248 5 -2 9 -10 9 -17 0
-8 6 -18 13 -22 6 -4 25 -26 42 -48 44 -60 178 -189 253 -245 37 -28 74 -57
83 -65 9 -8 19 -15 24 -15 5 0 16 -6 24 -14 21 -18 192 -106 261 -133 98 -39
187 -64 275 -79 17 -3 37 -7 45 -10 8 -3 35 -8 60 -10 25 -3 65 -7 90 -10 25
-3 54 -5 65 -4 29 2 66 2 95 0 14 -1 59 2 100 6 41 4 85 8 98 8 12 1 22 3 22
6 0 3 12 7 28 8 111 9 368 103 517 190 59 34 110 66 115 72 3 3 32 27 66 52
103 79 196 174 317 328 7 8 24 33 37 55 110 178 195 382 225 545 3 14 7 35 10
47 27 118 27 442 0 563 -3 14 -8 39 -10 55 -3 17 -13 55 -21 85 -9 30 -17 60
-18 65 -1 6 -4 15 -7 20 -10 17 -33 90 -31 98 1 4 -3 7 -10 7 -6 0 -9 3 -5 6
6 7 -96 209 -119 235 -8 8 -14 20 -14 25 0 5 -11 21 -25 36 -14 15 -25 30 -25
34 0 21 -208 240 -280 295 -106 81 -131 99 -137 99 -3 0 -14 6 -22 14 -38 32
-280 150 -330 160 -9 2 -23 6 -31 9 -25 9 -86 27 -111 33 -41 8 -126 25 -161
30 -37 6 -364 14 -370 9z"/>
<path d="M1576 6882 c-2 -2 -41 -5 -86 -8 -46 -2 -94 -7 -109 -10 -14 -3 -42
-7 -61 -9 -30 -3 -116 -26 -292 -78 -21 -6 -38 -15 -38 -19 0 -4 -8 -8 -17 -8
-23 0 -194 -93 -278 -151 -135 -93 -292 -243 -366 -349 -13 -19 -30 -39 -36
-43 -7 -4 -13 -15 -13 -22 0 -8 -4 -15 -10 -15 -5 0 -10 -6 -10 -14 0 -8 -4
-16 -8 -18 -19 -8 -124 -223 -162 -333 -30 -85 -55 -177 -64 -235 -18 -112
-21 -149 -21 -285 0 -138 6 -222 20 -285 3 -14 8 -38 10 -55 24 -133 127 -391
200 -500 14 -20 25 -40 25 -46 0 -5 7 -12 15 -15 8 -3 17 -14 20 -24 3 -10 13
-27 23 -38 9 -11 33 -40 52 -64 82 -102 312 -305 370 -326 8 -3 17 -8 20 -12
9 -12 133 -77 210 -110 76 -32 202 -75 253 -85 15 -3 37 -7 50 -10 61 -13 76
-16 122 -23 84 -11 375 -7 450 7 232 44 388 100 578 209 50 29 91 55 97 62 3
3 33 28 68 54 121 92 247 227 337 361 53 79 160 275 150 275 -3 0 2 14 10 30
13 26 54 143 61 175 1 6 6 28 12 50 6 22 13 58 17 80 3 22 8 51 10 65 5 28 17
158 16 178 0 17 0 80 0 95 1 13 -8 97 -17 162 -3 22 -7 58 -10 80 -3 21 -8 43
-11 48 -3 4 -7 22 -10 39 -8 55 -64 212 -105 298 -64 132 -125 228 -223 349
-35 43 -179 185 -214 211 -18 14 -45 35 -60 47 -14 13 -29 23 -33 23 -4 0 -13
6 -20 13 -21 20 -145 91 -228 130 -67 31 -210 81 -295 103 -16 4 -32 8 -35 9
-6 1 -93 16 -130 21 -14 3 -56 6 -95 9 -38 3 -85 6 -103 8 -18 2 -34 1 -36 -1z"/>
<path d="M12808 6885 c-3 -3 -49 -7 -104 -10 -54 -2 -110 -7 -124 -10 -14 -3
-38 -7 -55 -9 -102 -14 -271 -66 -392 -122 -128 -59 -201 -104 -348 -216 -55
-42 -202 -195 -254 -264 -28 -38 -54 -73 -58 -79 -31 -40 -157 -275 -148 -275
3 0 -2 -14 -10 -31 -33 -63 -76 -220 -100 -365 -19 -119 -19 -342 0 -442 3
-15 8 -47 11 -72 3 -24 8 -48 11 -53 3 -4 7 -22 10 -39 18 -116 158 -432 228
-515 5 -7 16 -19 23 -27 6 -8 12 -18 12 -22 0 -12 103 -127 180 -203 81 -79
237 -201 257 -201 7 0 13 -4 13 -9 0 -14 239 -127 337 -159 86 -29 119 -37
186 -47 16 -3 32 -7 36 -9 42 -26 418 -28 551 -2 172 32 346 91 465 156 108
59 175 99 185 110 3 3 32 27 66 52 103 79 196 174 317 328 7 8 24 33 37 55
110 178 195 382 225 545 3 14 7 35 10 47 20 87 27 360 13 468 -4 28 -9 72 -13
99 -3 27 -8 53 -11 58 -3 5 -8 23 -11 40 -19 119 -166 449 -230 516 -7 7 -13
16 -13 20 0 4 -10 19 -23 33 -12 15 -35 44 -52 65 -56 74 -212 219 -301 281
-49 35 -94 66 -99 70 -22 17 -197 103 -209 103 -6 0 -17 5 -24 12 -6 6 -20 13
-31 15 -10 1 -31 8 -47 14 -16 7 -33 13 -39 15 -5 1 -46 12 -91 23 -44 12 -96
24 -115 26 -19 3 -45 7 -59 10 -14 3 -62 7 -107 9 -45 2 -86 7 -91 10 -5 3
-11 3 -14 1z"/>
</g>
</svg>
