<svg xmlns="http://www.w3.org/2000/svg" viewBox="0 0 636.99 454.02"><path d="m581.55 201.25-.04-.19c-2.66-12.05-6.13-23.35-10.35-33.62-2.68-6.33-5.87-12.47-8.96-18.42l-1.65-3.18-.12-.22c-1.39-2.39-2.59-5.9-.39-9.07 4.8-6.92 9.39-13.77 12.61-21.48 7.17-16.29 10.85-32.83 10.95-49.11.19-10.56-2.32-17.84-7.47-21.64-4.11-3.04-9.38-3.54-15.67-1.48l-.15.05c-12.74 4.6-25.87 8.9-38.57 13.06-4.34 1.42-8.68 2.84-13.03 4.29-20.99 7.01-43.34 12-66.46 14.83-22.1 2.82-44.87 3.64-66.88 4.43-3.11.11-6.22.22-9.31.34-23.04.78-43.6 1.02-62.81.76-5.83-.15-11.66-.28-17.51-.41-45.41-1.02-92.37-2.06-136.77-13.77-10.94-2.87-22-6.55-32.7-10.11-2.84-.94-5.67-1.89-8.51-2.82l-4.53-1.47c-7.49-2.43-15.23-4.94-22.6-7.75-3.92-1.53-14.34-5.58-21.25 1.23l-.08.08c-6.02 6.2-5.97 14.9-5.92 21.89v1.41c.79 19.7 6.35 39.23 16.07 56.39 1.3 2.41 2.84 4.59 4.32 6.69 1.36 1.92 2.64 3.74 3.67 5.63.8 1.44 1.42 3.67-1.05 8.3-.72 1.4-1.45 2.81-2.19 4.22-2.19 4.21-4.45 8.56-6.59 13.23-7.5 16.97-12.31 34.19-14.29 51.18v.12c-3.4 36.62 14.81 70.39 28.77 92.56 14 22.64 33.49 42.84 57.92 60.04l.14.09c16.56 10.84 35.57 19.71 56.57 26.38 5.63 1.72 11.79 3.3 19.41 4.96 5.26 1.13 10.67 2.36 15.9 3.55 8.26 1.88 16.8 3.82 25.17 5.46 6.8 1.37 13.64 2.12 19.43 2.68 3.94.38 7.97.86 11.86 1.33 8.54 1.03 17.36 2.08 26.21 2.2 1.16.03 2.31.04 3.47.04 11.67 0 23.27-1.37 34.53-2.69 4.75-.56 9.66-1.14 14.46-1.6h.11c9.87-1.18 19.41-3.31 28.64-5.38 1.98-.44 3.96-.89 5.99-1.33 2.72-.62 5.44-1.22 8.16-1.82 17.41-3.85 35.41-7.83 52.34-15.6 22.94-9.51 42.92-22.47 59.4-38.51 16.15-14.61 30.57-33.63 42.84-56.5 17.32-31.66 23.16-62.51 16.88-89.22ZM252.77 254.5l-.08.1c-8.75 11.19-24.49 17.23-42.08 16.16h-.38c-12.86.19-24.3-2.61-34.02-8.3l-.25-.14c-9.25-5.27-30.84-19.91-32.47-42.41-.88-9.98 1.96-20.82 8.02-30.61 1.7-2.85 3.89-4.32 9.04-2.26l.14.05c2.65.97 5.31 1.93 7.98 2.9 26.16 9.46 53.21 19.25 73.45 38.39 4.57 4.39 9.31 9.1 12.6 14.22 3.25 4.91-.68 10.36-1.96 11.91Zm63.11 81.77v-1.62c-.67-41.22-12.41-71.19-41.87-106.88-24.22-31.39-60.97-45.63-96.5-59.41-3.06-1.19-6.1-2.37-9.13-3.55l-.1-.04c-21.34-7.84-41.91-15.96-58.98-28.93l-.12-.09c-10.69-7.61-19.23-19.53-26.13-36.41-3.44-8.5-5.95-17.67-7.42-27.18-.08-.59-.17-1.2-.26-1.81-.22-1.5-.57-3.88-.63-5.59q.18.075.39.18l.12.05c21.52 9.33 46.34 17.28 75.94 24.32 47.05 10.36 95.1 12.09 140.36 12.98h1.65c32 .15 65.09.29 97.65-1.47 63.97-2.4 121.58-14.48 171.32-35.94.09-.04.18-.08.26-.12-.06 1.64-.38 3.88-.58 5.3-.07.51-.14 1.01-.2 1.43-1.55 10.33-4.28 20.17-8.12 29.3-7.02 17.1-16.89 29.79-29.36 37.73l-.19.13c-16.05 11.28-33.78 18.25-55.29 26.2l-.14.05c-4.5 1.81-9.13 3.62-13.61 5.37-25.45 9.94-51.77 20.21-73.29 38.41-13.58 11.54-24.44 26.15-33.29 38.93-7.6 11.09-12.87 20.7-16.57 30.17-6.4 15.9-9.85 34.55-10.53 57.01v1.78c.06 31.82 2.83 46.9 9.85 51.97-4.29.26-8.58.4-12.84.34-4.14.02-8.26-.11-12.32-.34 7.02-4.99 9.92-20.52 9.93-52.27m66.27-93.66c12.04-17.06 31.3-30.89 58.85-42.29 7.9-3.24 16.16-6.24 24.15-9.14 3.52-1.28 7.03-2.55 10.48-3.84 1.65-.6 4.71-1.71 6.41-1.21l.1.03c2.23.73 4.06 4.23 6 7.93l.03.06c7.77 15.84 7.02 31.69-2.17 45.83-8.94 13.1-22.92 23.2-39.3 28.4-5.66 1.7-11.72 2.15-19.06 2.32-5.84.12-11.54.14-17.04-.93-6.28-1.17-12.36-3.65-17.6-7.15-1.69-1.13-16.28-11.26-10.85-20Zm179.55-20.64v.23c-.76 31.86-15.77 65.4-42.29 94.47-15.23 15.55-29.84 26.88-44.64 34.61-10.87 5.6-22.48 10.24-33.38 14.4-29.77 11.16-56.1 17.68-80.58 19.95l-5.95.66c-3.74.42-7.52.85-11.32 1.23 2.96-3.22 3.78-8.32 3.22-12.07-5.04-34.19.03-68.55 14.25-96.73l.06-.13c2.92-6.24 4.64-8.62 5.47-9.52.87.72 2.18 2.12 3.19 3.2 2.6 2.77 5.83 6.22 10.39 9.29 12.95 9.4 28.86 14.19 44.83 13.48 34.86-1.76 70.95-23.76 85.82-52.32l.14-.29c9.23-20.92 8.51-44.54-1.88-61.63l-.14-.22c-1.83-2.68-2.26-3.86-2.35-4.36.04-.03.09-.07.15-.11 1.21-.65 2.42-1.31 3.64-1.96 9.86-5.29 20.06-10.77 29.1-18 2.77-2.21 4.02-2.62 4.46-2.68.03.03.06.08.1.13 12.6 22.72 18.72 46.33 17.69 68.39ZM79.47 186.48c2.77-10.09 7.1-19.58 11.31-28.78 1.38-3.05 2.2-4.01 2.59-4.32.03.01.06.03.1.04l.23.1c1.09.44 2.57 1.53 3.58 2.28 9.75 7.79 20.78 13.66 31.45 19.34l1.53.81c.14.1.24.18.31.25-.11.4-.47 1.32-1.65 3.17-12.17 18.98-12.75 44.13-1.52 65.64l.16.28c10.9 17.98 29.54 33.36 51.16 42.19 23.41 9.56 46.8 10 65.88 1.25 11.55-4.92 18.2-11.81 22.6-16.37 1.13-1.18 2.48-2.57 3.38-3.31 2.77 3.02 8.15 15.06 10.06 19.36 10.76 27 14.2 57.9 9.69 86.98-.62 3.78.17 8.93 3.19 12.17-3.74-.38-7.34-.8-10.75-1.22l-.18-.02c-18.79-1.63-35.13-4.5-49.96-8.79l-.11-.03c-14.61-3.87-26.26-7.6-36.69-11.73-14.83-5.73-30.16-11.65-43.9-20.46-32.7-20.99-57.71-52.24-70.4-87.94-7.57-22.39-8.3-47.58-2.07-70.89Z"/></svg>