<svg xmlns="http://www.w3.org/2000/svg" viewBox="0 0 2200 2800" height="182" width="143" xml:space="preserve" role="img" aria-labelledby="svgProfile"><title id="svgProfile">Josh Crain Illustration</title><defs><clipPath id="a" clipPathUnits="userSpaceOnUse"><path d="M1054.79 228.261h419.22v854.469h-419.22z"/></clipPath><clipPath id="b" clipPathUnits="userSpaceOnUse"><path d="M283.078 168.268h400.346v288.488H283.078Z"/></clipPath><clipPath id="c" clipPathUnits="userSpaceOnUse"><path d="M143.202 1601.43H470.05v326.85H143.202Z"/></clipPath><clipPath id="d" clipPathUnits="userSpaceOnUse"><path d="M1337.49 1871.85h151.21v151.2h-151.21z"/></clipPath><clipPath id="e" clipPathUnits="userSpaceOnUse"><path d="M14.802 184.519h623.137V1264.93H14.802Z"/></clipPath><clipPath id="f" clipPathUnits="userSpaceOnUse"><path d="M846.293 1300.12h172.367v169.63H846.293Z"/></clipPath><clipPath id="g" clipPathUnits="userSpaceOnUse"><path d="M70.25-6.896h1569.63V2094.46H70.25Z"/></clipPath></defs><g style="opacity:.25" clip-path="url(#a)" transform="matrix(1.33333 0 0 1.33333 0 0)"><path class="fill-fore" style="fill-opacity:1;fill-rule:nonzero;stroke:none" d="M0 0c.298-.253.612-.485.93-.702-.974-1.96-2.038-3.885-3.12-5.81-.265-.01-.535-.024-.802-.04C-1.863-4.602-.926-2.344 0 0Zm328.814 347.11c14.374 154.358-51.187 292.538-146.438 308.632C87.13 671.84-1.728 559.76-16.102 405.402a456.25 456.25 0 0 1-1.474-21.135c-1.804-4.435-2.733-10.699-2.086-18.988 2.257-55.818 5.554-111.802.242-167.458-4.203-59.752-14.322-118.454-26.4-176.176-5.566-26.666-13.245-52.761-18.366-79.614-2.285-5.936-4.116-12.28-5.423-18.988-5.924-30.364.19-61.157 14.437-83.762 1.053-.98 2.114-1.935 3.17-2.915 1.74-1.611 3.405-3.329 5.205-4.824 2.312-1.753 4.64-3.445 6.929-5.233a44.696 44.696 0 0 1 4.012-2.723c.62-.318 1.24-.61 1.876-.894 2.812-.995 5.685-1.687 8.553-2.318.239-.05.477-.101.711-.152 1.28-.278 2.56-.566 3.834-.838.684-.142 1.36-.293 2.038-.43.835-.182 1.677-.348 2.52-.515v-.005c.13-.025.257-.045.389-.06.516-.091 1.032-.167 1.545-.243a84.487 84.487 0 0 1 1.943-.258l2.9.197h.004c.973.066 1.943.132 2.908.192.973.056 1.943.111 2.916.162.966.045 1.935.09 2.905.121.703.172 1.406.354 2.105.54.703.183 1.403.37 2.102.566 1.132.324 2.264.647 3.397.98.588.167 1.176.349 1.764.526.588.177 1.176.353 1.764.535.512.157 1.029.323 1.541.485 1.001.318 1.998.647 3 .985.429.147.862.293 1.29.45.398.131.792.273 1.18.414.589.207 1.169.424 1.749.641a223 223 0 0 1 3.325 1.258c1.1.425 2.21.859 3.314 1.293.063.026.13.046.198.081.493.192.985.384 1.478.581a183.542 183.542 0 0 1 2.38.96c.441.177.874.349 1.311.53.914.37 1.828.743 2.741 1.117a885 885 0 0 0 3.977 1.924c.584.283 1.164.556 1.748.834l.767.363c.556.268 1.124.526 1.68.788.386.182.771.359 1.16.536a736.467 736.467 0 0 0 3.901 1.743c2.254.99 4.51 1.975 6.767 2.975 1.49.727 2.976 1.475 4.458 2.233.087.04.17.085.254.126 1.394.717 2.793 1.445 4.183 2.172 1.212.717 2.432 1.434 3.651 2.142.219.136.433.257.656.389l5.463 3.182c.532.308 1.064.621 1.589.934.739.425 1.474.864 2.209 1.299.107.06.214.12.314.187.448.262.897.53 1.342.798.004.005.008.01.016.015.545.318 1.089.646 1.63.975.544.338 1.084.682 1.624 1.02.29.182.58.364.866.55a273.1 273.1 0 0 1 7.596 4.985c.394.269.791.537 1.184.81.437.298.87.606 1.307.919.437.308.875.616 1.308.93.437.312.87.626 1.303.949 1.589 1.167 3.17 2.349 4.747 3.53.58.43 1.152.865 1.728 1.289.775.58 1.554 1.157 2.329 1.728 38.247 33.202 72.16 74.724 102.866 119.409 40.166 55.393 72.76 120.06 91.854 192.542 6.05 32.783 28.064 102.396 27.898 142.16a457.44 457.44 0 0 1 2.614 22.186z" transform="translate(1130.57 410.638)"/></g><g style="opacity:.25" clip-path="url(#b)" transform="matrix(1.33333 0 0 1.33333 0 0)"><path class="fill-fore" style="fill-opacity:1;fill-rule:nonzero;stroke:none" d="M0 0c15.417-2.718 26.802 16.983 16.79 29.01C5.517 40.795-18.24 37.496-33.54 42.42c-116.686 24.5-210.828 92.976-275.057 192.72-8.056 12.25-16.497 24.292-23.862 36.97-1.985 7.628-9.492 13.16-17.301 13.16a16.1 16.1 0 0 1-2.506-.193c-20.776-4.202-17.538-25.68-6.804-38.834 10.532-16.614 21.423-33.006 32.9-48.983C-252.441 87.414-130.831 16.013 0 0Z" transform="translate(656.371 171.236)"/></g><g style="opacity:.25" clip-path="url(#c)" transform="matrix(1.33333 0 0 1.33333 0 0)"><path class="fill-fore" style="fill-opacity:1;fill-rule:nonzero;stroke:none" d="M0 0c0-90.116 73.043-163.174 163.174-163.174 90.111 0 163.174 73.058 163.174 163.174 0 90.111-73.063 163.174-163.174 163.174C73.043 163.174 0 90.111 0 0Z" transform="translate(143.452 1764.856)"/></g><g style="opacity:.8" clip-path="url(#d)" transform="matrix(1.33333 0 0 1.33333 0 0)"><path class="fill-accent" style="fill-opacity:1;fill-rule:nonzero;stroke:none" d="M0 0c41.618 0 75.356 33.738 75.356 75.356 0 41.618-33.738 75.351-75.356 75.351-41.623 0-75.356-33.733-75.356-75.35C-75.356 33.737-41.623 0 0 0Z" transform="translate(1413.094 1872.097)"/></g><g><g style="opacity:.8" clip-path="url(#e)" transform="matrix(1.33333 0 0 1.33333 0 0)"><path class="fill-accent" style="fill-opacity:1;fill-rule:nonzero;stroke:none" d="M0 0c-.368.19-.741.382-1.115.569-.559 2.767-1.088 5.524-1.48 8.265.558.02 1.115.06 1.668.132C-.802 5.855-.615 2.824 0 0Zm225.673 432.218c57.331 174.658-11.757 353.152-154.32 398.688-142.56 45.535-304.6-59.139-361.932-233.801a414.46 414.46 0 0 1-7.473-25.481c-20.22-42.45-24.15-131.44-32.09-170.502-9.491-90.155 4.002-180.837 32.846-266.585 20.887-68.05 47.882-134.833 85.18-195.563l2.416-3.386c.598-.836 1.19-1.672 1.788-2.514 1.19-1.677 2.375-3.358 3.576-5.032a320.371 320.371 0 0 1 4.093-5.613c.457-.621.922-1.234 1.386-1.846l.005-.001c.87-1.148 1.754-2.287 2.637-3.422l.008-.012c.113-.143.225-.292.342-.436a506.193 506.193 0 0 1 4.07-5.134c.361-.445.722-.895 1.088-1.34.314-.396.629-.787.95-1.173 1.029-1.27 2.06-2.528 3.102-3.784l.005-.001c.3-.357.606-.715.91-1.073.3-.357.602-.71.909-1.063l.004-.006.068-.079a4.18 4.18 0 0 1 .157-.182l.356-.419c.356-.418.712-.837 1.069-1.25l.005-.001c.318-.371.642-.743.96-1.108.132-.157.264-.31.396-.462.327-.377.654-.76.982-1.132.387-.45.773-.9 1.165-1.345.306-.353.613-.707.924-1.06.056-.062.105-.128.161-.189.808-.932 1.623-1.86 2.436-2.792.588-.67 1.17-1.34 1.758-2.017.294-.335.589-.666.882-1.006.293-.34.582-.675.876-1.01l.005-.002c1.604-1.845 3.204-3.685 4.806-5.54 1.59-1.7 3.198-3.393 4.812-5.076l-.001-.005c1.81-1.884 3.63-3.764 5.463-5.631l.005-.001c1.338-1.28 2.678-2.55 4.023-3.821 4.03-3.817 8.065-7.63 12.004-11.538.219-.214.436-.433.65-.647a949.52 949.52 0 0 0 3.16-3.155c1.261-1.271 2.518-2.546 3.78-3.817l.005-.001.005-.001c.738-.673 1.47-1.345 2.21-2.014a705.21 705.21 0 0 1 2.214-2.014l.005-.001.005-.001c.284-.252.567-.509.85-.765a992.783 992.783 0 0 1 4.23-3.798c.537-.478 1.073-.955 1.611-1.428.292-.263.59-.523.883-.782.737-.652 1.469-1.303 2.212-1.947.466-.413.937-.827 1.409-1.237.752-.655 1.503-1.31 2.256-1.96a273.52 273.52 0 0 1 6.476-5.43c.053-.045.107-.091.162-.132.601-.49 1.204-.974 1.807-1.454.07-.069.147-.129.225-.184.337-.272.674-.544 1.012-.81.82-.653 1.64-1.3 2.466-1.95.257-.2.51-.395.769-.591a422.285 422.285 0 0 1 4.645-3.578 285.91 285.91 0 0 1 7.442-5.526l.005-.006c.203-.104.41-.209.62-.309.209-.1.416-.21.624-.315a58.4 58.4 0 0 0 1.24-.627c.52-.26 1.04-.525 1.56-.794.949-.488 1.898-.975 2.846-1.472.868-.452 1.73-.907 2.597-1.364 1.075-.566 2.15-1.133 3.218-1.704 1.13-.597 2.255-1.198 3.38-1.8a167.886 167.886 0 0 1 4.307-1.48c.483-.16.961-.316 1.445-.471 1.148-.34 2.299-.67 3.45-1 3.091-.888 6.189-1.746 9.29-2.615.364-.103.724-.2 1.088-.303 4.361-1.22 8.768-2.366 13.24-3.16a69.812 69.812 0 0 1 3.095-.276c2.355-.02 4.683.067 7.033.267 4.137.412 8.274.686 12.414 1.032 3.299.418 6.508 1.16 9.78 1.743 1.98.35 3.96.675 5.939 1.025 31.48 14.8 55.598 43.728 62.504 80.128a110.204 110.204 0 0 1 1.895 23.919c6.266 32.1 8.549 65.084 14.097 97.276 11.981 69.733 27.209 139.225 51.328 205.94 20.486 63.06 53.29 120.798 84.554 179.046 5.078 8.435 6.913 15.756 6.604 21.694a409.428 409.428 0 0 1 8.546 23.595z" transform="translate(354.685 388.236)"/></g></g><g><g style="opacity:.8" clip-path="url(#f)" transform="matrix(1.33333 0 0 1.33333 0 0)"><path class="fill-accent" style="fill-opacity:1;fill-rule:nonzero;stroke:none" d="M0 0c13.223 7.785 5.383 26.227-6.973 26.227-2.265 0-4.687-.621-7.16-2.047-52.336-28.04-104.582-64.028-129.82-119.762-4.211-10.777-14.695-23.414-8.863-35.133 6.16-12.187 25.718-7.601 26.238 5.887 5.957 14.183 13.754 29.742 21.945 42.004 15.84 22.683 37.27 40.816 60.043 56.246C-30.18-16.95-15.172-8.363 0 0Z" transform="translate(1005.191 1443.273)"/></g></g><g><g clip-path="url(#g)" transform="matrix(1.33333 0 0 1.33333 0 0)"><path class="fill-fore" style="fill-opacity:1;fill-rule:nonzero;stroke:none" d="M0 0c-1.05-.434-2.086-.889-3.132-1.349l-.08-.035A27.58 27.58 0 0 1-4.8-2.576C-6.359-3.96-7.835-5.43-9.37-6.834c-.47-.43-.94-.85-1.415-1.263-.389-1.334-.778-2.662-1.086-4.021-.379-1.642-.798-3.263-1.394-4.844-.227-.592-.48-1.162-.732-1.738.181-1.05.363-2.096.54-3.147.06-.369.121-.743.177-1.116.56-.93 1.106-1.87 1.682-2.799.086-.126.167-.258.247-.384.006-.01.016-.02.02-.03 0-.005.006-.005.006-.005l-.334.783.708-1.223a30.007 30.007 0 0 0 2.086-2.843 43.879 43.879 0 0 0 1.525-2.587c.42-.773.804-1.57 1.273-2.313l-.51.798c.606-.945 1.147-1.829 1.622-2.849l-.41.879c.268-.576.627-1.137.965-1.677-.076.116-.146.232-.222.343a40.881 40.881 0 0 0 2.4-4.349c.15-.303.318-.591.49-.879 1.424-2.081 3.424-4.01 4.232-6.415a8.36 8.36 0 0 0 .43-2.137l2.93-5.071-2.814-1.258-.172-.005c42.992-76.75 71.265-162.048 49.796-250.133-23.059-126.79-113.377-221.69-174.1-331.187a14.224 14.224 0 0 0-.555-1.071c-.384-.662-.763-1.329-1.137-2a645.33 645.33 0 0 1-7.612-14.306c4.48-3.41 8.915-6.875 13.27-10.456 5.152-4.249 10.219-8.583 15.27-12.952a332.44 332.44 0 0 0 2.202 4.465c36.39 70.952 86.146 133.856 127.199 202.024C68.092-398.815 97.5-315.725 95.966-230.508 92.778-148.884 57.246-74.376 14.33-5.89a275.232 275.232 0 0 0-4.516 3.46c-.334.258-.667.52-1 .778A93.174 93.174 0 0 0 4.738.243c-.126.06-.252.126-.379.186C2.904.293 1.455.127 0 0Z" transform="translate(303.121 1725.178)"/><path class="fill-fore" style="fill-opacity:1;fill-rule:nonzero;stroke:none" d="M0 0c-99.87-37.658-197.998-96.112-264.02-181.435-42.688-61.808-57.59-138.008-68.516-211.06-12.77 26.423-36.274 47.8-67.062 35.506-55.751-16.72-99.132-59.334-136.164-102.488-33.036-43.951-63.874-92.747-74.972-147.282-9.775-51.306-8.416-110.317 25.12-153.051 46.599-61.935 133.73-58.525 199.59-33.182 59.964 22.332 106.967 74.164 126.47 134.734 25.843 5.916 52.368 9.598 78.806 5.577-10.703-94.036 39.32-186.718 114.055-241.788 40.76-32.824 92.642-56.58 119.167-103.725 27.691-51.483-24.05-97.016-41.063-143.034-41.285-95.066-39.648-127.81 74.513-115.802 65.243 3.995 129.557 16.624 193.295 30.611 24.585 8.658 46.023-10.35 66.031-22.292 36.592-24.145 64.067-58.98 91.677-92.46-73.118-19.427-137.922-61.874-202.22-100.44-75.17-42.841-155.3-77.261-235.859-108.595-122.778-36.728-253.558-43.639-380.24-26.181-129.38 10.148-252.745 63.415-349.499 149.843-73.679 61.622-125.157 144.242-157.683 233.974-.126.323-.253.647-.379.965a190.895 190.895 0 0 0-7.011-.182c-5.85-.05-11.694.076-17.538.278-1.582.055-3.158.131-4.739.222-2.631.04-5.263.03-7.895-.02-.839-.025-1.677-.056-2.516-.086 25.965-68.163 57.5-134.022 103.71-190.598 79.63-94.137 185.753-168.356 304.026-204.585 165.604-44.275 343.184-47.528 509.46-4.753 48.008 13.886 93.288 35.536 138.816 55.838 45.31 20.357 90.672 40.89 133.012 67.041 65.345 39.856 132.129 82.267 208.005 97.456 40.967 21.428-23.074 71.846-37.754 93.35-25.954 30.595-57.105 56.706-92.526 75.674-37.46 25.009-68.49 9.466-107.563 2.116-68.239-12.598-138.397-26.524-207.909-21.418 9.517 54.186 41.835 100.083 65.37 148.702 39.491 89.707-54.964 153.612-119.359 196.836-54.731 37.785-98.708 93.269-110.791 159.795-3.193 16.276-4.556 32.915-3.657 49.488.606 12.502 6.172 26.712-2.324 37.75-23.58 24.18-101.265 12.612-131.042 1.752-16.296-10.512-17.407-32.4-26.303-48.215-13.77-25.742-33.712-48.594-57.64-65.355-81.126-52.574-210.38-52.862-216.295 69.224-5.51 73.916 33.47 141.974 78.822 197.372 29.565 32.379 62.359 64.915 104.416 80.038 23.484 11.982 26.732-8.9 36.84-25.342 8.153-13.745 10.8-33.688 26.368-41.24 10.658-4.56 22.488 1.885 26.52 12.255 10.446 36.648 11.815 75.589 20.18 112.822 10.567 43.906 22.902 88.828 47.619 127.092 27.63 40.825 66.809 72.002 106.947 99.866C-66.112-62.521 7.759-31.394 85.393-12.633c57.59 15.38 116.389 30.378 176.495 27.211 68.678-3.702 137.897-45.72 148.848-117.903 10.815-45.12-2.662-91.814 6.759-136.877 3.955-18.24 18.922-30.839 31.899-43.083-25.913-23.767-10.966-45.993 10.669-65.395-10.134-23.53-14.922-49.038-7.36-74.083 2.177-7.537 3.783-16.372 11.244-20.514 13.184-8.375 31.43 5.446 26.596 20.438-22.418 54.176 35.596 66.88-17.014 112.292 46.205 47.715-25.468 51.377-23.266 95.197 3.465 80.615 4.885 172.681-68.426 224.73-43.3 30.763-91.136 41.826-140.428 41.826C160.446 51.21 75.513 21.382 0 0Z" transform="translate(1048.883 1627.458)"/><path class="fill-fore" style="fill-opacity:1;fill-rule:nonzero;stroke:none" d="M0 0c-14.629-6.895-29.273-4.551-44.068-2.202C-54.318-.581-64.642 1.046-75.088-.4c-37.81-1.884-58.349-44.78-45.842-78.14 3.738-21.468 29.475-31.374 38.477-8.162 2.803 8.284-3.521 15.133-4.991 22.918-4.743 32.697 19.68 28.823 43.86 24.948 11.76-1.884 23.46-3.768 31.728-1.45 55.793 19.256 97.39-4.131 77.468-66.415-18.321-46.578-54.272-83.307-84.317-122.51-19.054-21.388-42.275-39.355-56.606-64.602a58.515 58.515 0 0 1-4.723-10.553h.005v-.01l.005-.015v-.015l.005-.01v-.015l.005-.01v-.031l.005-.01v-.025l.005-.015V-304.567l.006-.01V-304.976l.05.268.328-58.44-.53-.075c1.515-10.562 2.935-21.07 2.829-31.232.247-4.577.454-9.153.611-13.74a4.956 4.956 0 0 0 1.48-2.233 5.149 5.149 0 0 0-.045-3.273 5.238 5.238 0 0 0-1.213-1.92c.94-39.466-1.626-79.099-9.4-117.823-18.003-71.981-44.018-142.427-72.765-210.757-3.612-10.88-15.276-17.331-15.19-29.394-.192-10.744 9.992-19.539 20.655-18.079 22.494 4.32 39.517 62.147 48.074 82.317 20.529 61.824 47.225 121.223 57.823 185.754 9.244 57.156 8.88 115.474 2.334 172.902-1.248 15.397-6.44 32.233 4.915 45.144 19.902 26.687 47.18 46.923 66.248 74.417 30.152 39.537 66.33 78.16 77.928 127.926C118.251-43.805 80.123 3.122 25.124 3.122 17.073 3.122 8.663 2.116 0 0Z" transform="translate(1521.38 1207.532)"/><path class="fill-fore" style="fill-opacity:1;fill-rule:nonzero;stroke:none" d="M0 0c-3.965-8.956.636-20.003 9.633-23.726 36.38-18.069 77.725-19.2 115.868-31.435 7.96-2.818 15.705-6.617 22.186-12.093 5.31-4.748 9.835-10.832 16.595-13.487l-.441.152c9.698-4.233 21.907 1.52 24.509 11.87 4.076 14.068-10.072 21.595-18.422 30.04C145.64-18.861 113.484-13.956 83.57-8.39 69.567-5.622 55.54-2.4 42.007 2.157 33.18 5.263 23.72 10.86 15.344 10.86 9.513 10.86 4.206 8.15 0 0Z" transform="translate(1344.19 1359.496)"/><path class="fill-fore" style="fill-opacity:1;fill-rule:nonzero;stroke:none" d="M0 0c-48.048-11.886-88.525-33.329-120.374-71.896-42.507-40.896 23.034-52.973 52.954-62.212 23.514-7.305 47.129-14.336 70.44-22.272 9.911-2.859 19.186-8.607 29.546-9.491 9.865 0 18.104 8.238 18.104 18.104.111 12.497-10.739 17.099-20.832 20.14-38.723 14.194-78.462 25.438-117.893 37.47 18.033 20.868 44.063 38.603 69.86 46.6C-9.047-40.387.152-37.012 9.623-34.91c4.486.995 8.542 4.425 10.82 8.32C27.916-14.668 17.808.73 4.865.73 3.277.73 1.647.5 0 0Z" transform="translate(1374.05 986.317)"/><path class="fill-fore" style="fill-opacity:1;fill-rule:nonzero;stroke:none" d="M0 0c-8.961-5.016-11.416-17.064-6.072-25.595C-2.293-33.34.086-41.674 1.955-50.06c1.349-7.32 2.632-14.755 2.414-22.226-1.535-4.44-3.015-9.143-1.475-13.891-.156.778-.313 1.556-.474 2.339l-.152 2.217c2.157-26.54 37.027-22.367 37.804 2.94 2.006 24.438-4.238 49.559-14.931 71.467-2.898 6.149-9.558 9.658-16.178 9.658C5.833 2.445 2.711 1.66 0 0Z" transform="translate(1328.344 954.478)"/><path class="fill-fore" style="fill-opacity:1;fill-rule:nonzero;stroke:none" d="M0 0c-53.726-34.132-41.209-107.937-33.677-161.8 6.41-33.89 16.881-66.824 23.786-100.618 1.99-6.95 3.385-14.765 6.608-21.438 1.707.106 3.42.212 5.127.298 3.47.177 6.95.237 10.42.414 1.718.091 3.446.207 5.168.243.702.01 1.41-.01 2.117-.03.576-.016 1.151-.03 1.732-.026 2.218.01 4.435.05 6.653-.025.904-.03 1.803-.157 2.703-.283.535-.076 1.065-.177 1.596-.273 1.434 5.84-.4 12.154-3.567 17.407-3.369 10.153-5.475 20.792-7.713 31.233-4.824 23.408-12.194 46.205-17.21 69.567-5.309 35.395-18.124 96.986 5.81 126.158 16.078-36.542 18.139-77.291 22.735-116.47.475-7.53 1.081-15.063 1.723-22.6v-.01l.005-.014v-.016l.005-.015.005-.015.005-.02.005-.015.005-.015.005-.016.005-.015v-.015l.005-.015.005-.015.005-.015v-.015l.005-.016v-.015l.005-.015v-.015l.006-.01v-.025l.005-.015v-.01l.005-.016v-.025l.005-.01v-.015l.005-.015V-178.697l.005-.015v-.015l.005-.015v-.015l.005-.015v-.016l.005-.01v-.03l.005-.01v-.015l.005-.015V-178.894l.005-.015v-.025l.005-.015v-.015l.005-.01v-.031l.005-.015v-.01l.005-.015v-.025l.005-.01V-179.107l.005-.015v-.01l.005-.015V-179.172l.006-.01v-.025l.005-.015v-.025l.005-.01v-.041l.005-.015v-.061l.005-.015v-.06l.005-.01v-.031l.005-.01v-.025l.005-.01v-.025l.005-.01v-.016l.005-.01v-.015l.005-.015v-.015l.005-.016v-.015l.005-.015v-.015l.005-.015v-.015l.005-.015v-.031l.005-.015v-.03l.005-.01v-.031l.005-.01v-.075l.005-.016V-180.05l.005-.016V-180.126l.005-.01V-180.172l.006-.015v-.025l.005-.015v-.015l.005-.016v-.015l.005-.015v-.03l.005-.015v-.016l.005-.015v-.01l.005-.015v-.03l.005-.015v-.041l.005-.015v-.061l.005-.015v-.065l.005-.015v-.041l.005-.015v-.035l.005-.016v-.02l.005-.01v-.025l.005-.01v-.01l.005-.016v-.025l.005-.015v-.025l.005-.01v-.015l.006-.016v-.025l.005-.01v-.01l.005-.015V-181.036l.005-.01v-.015l.005-.015v-.01l.005-.015.005-.015v-.015l.005-.016v-.015l.005-.015v-.015l.005-.01v-.015l.005-.015v-.016l.005-.01v-.015l.005-.01v-.015l.005-.015.005-.01v-.016l.005-.015v-.01l.005-.015v-.015l.005-.015.006-.015v-.01l.005-.016v-.015l.005-.01.005-.015v-.01l.005-.01v-.015l.005-.01v-.01l.005-.01v-.016l.005-.01v-.01l.005-.015v-.01l.005-.015v-.01l.005-.016v-.015l.005-.01v-.015l.005-.01v-.031l.005-.01v-.025l.005-.015V-181.833l.005-.01V-182.218l.046.242.02-3.177c2.278-26.12 4.682-52.267 3.344-78.458-7.678-26.252 29.131-37.668 35.228-10.507 4.218 45.19-3.107 90.723-6.284 135.816C62.551-106.639 55.474 2.005 10.972 2.02 7.537 2.02 3.895 1.374 0 0Z" transform="translate(1406.836 1084.803)"/><path class="fill-fore" style="fill-opacity:1;fill-rule:nonzero;stroke:none" d="M0 0c-2.632-9.416 3.051-19.766 12.583-22.307 15.467-4.127 31.51-6.031 47.402-7.744 40.744-3.384 81.675-5.915 122.581-5.51 112.868 3.49 225.75-2.238 338.577-5.138 47.24-1.788 94.48-.677 141.721.43 30.359.712 60.713 1.424 91.071 1.374 14.003-.243 28.04-.576 42.012-1.652l.697.045h-.035.07c.117.01.228.015.344.02l.08.007c2.413.151 4.816.368 7.22.67 2.45.303 4.9.672 7.36.86 2.712.211 5.42.221 8.137.282 1.273.03 2.53.08 3.789.08.545 0 1.086-.01 1.631-.035.04 0 .08 0 .121.005h.005a5.267 5.267 0 0 0 3.248-1.09 51.07 51.07 0 0 0 2.779.03c3.01-.061 6.02-.298 9.021-.536 3.405.202 6.804.445 10.209.616 1.475.076 2.955.127 4.435.177 2.915 3.668 4.46 8.396 3.789 13.25-2.905 16.32-15.508 15.417-28.515 17.897-22.277 3.814-44.912 4.915-67.471 5.415-43.674.348-87.333-.96-130.997-1.854-6.127-.313-12.26-.379-18.392-.348-4.814-.081-9.633-.157-14.447-.218-2.192-.06-4.385-.12-6.572-.192-4.571-.136-9.158-.323-13.734-.298a7.073 7.073 0 0 0-2.223.37c-96.33 1.212-192.633 5.54-288.978 7.152-22.357.232-44.735-.03-67.112-.293C162.684.788 104.942.11 47.574 7.93c-10.128.868-19.989 3.869-29.965 5.268C9.669 13.2 2.238 8.011 0 0Z" transform="translate(558.056 840.837)"/><path class="fill-fore" style="fill-opacity:1;fill-rule:nonzero;stroke:none" d="M0 0c.217-.01.434-.025.646-.04L0 .005V0Z" transform="translate(1383.42 802.214)"/><path class="fill-fore" style="fill-opacity:1;fill-rule:nonzero;stroke:none" d="m0 0 .258.015C.172.015.086.01 0 0Z" transform="translate(1354.81 800.338)"/><path class="fill-fore" style="fill-opacity:1;fill-rule:nonzero;stroke:none" d="m0 0-2.405-.045C-7.213-.136-12.017-.273-16.82-.42-28.485-21-1.677-28.242 14.599-35.91 49.25-52.418 83.428-69.896 118.12-86.333a4869.422 4869.422 0 0 0 34.728-16.755c18.68-6.87 37.88-26.585 58.636-17.124 15.472 9.016 25.605 24.837 39.441 35.97 11.957 10.053 4.031 31.354-11.476 31.425-18.317-1.52-27.642-22.2-41.28-32.455-42.745 21.908-86.52 41.724-129.436 63.283C53.393-14.4 38.057-6.809 22.514.348 15.018-.05 7.506-.076 0 0Z" transform="translate(1168.019 835.806)"/><path class="fill-fore" style="fill-opacity:1;fill-rule:nonzero;stroke:none" d="M0 0c-.313-.556-.621-1.116-.93-1.677-1.702-3.102-3.394-6.203-5.177-9.259a366.249 366.249 0 0 1-.773-5.82 86.857 86.857 0 0 0-.43-3.05C15.999-60.53 46.064-98.087 68.75-138.811c16.205-39.997 22.903-82.888 42.836-121.294 10.865-20.296 52.584-97.364 78.7-64.344 1.924 2.854 2.773 5.835 2.985 9.184.586 8.79-5.784 14.78-12.522 18.922-4.834 4.764-9.29 9.86-13.589 15.109-24.226 30.384-37 67.678-47.816 104.517-6.683 22.65-12.638 45.826-24.595 66.41C72.674-74.76 46.912-41.34 26.01-5.056c-.454.496-.889 1.006-1.323 1.496-.874.99-1.753 1.99-2.561 3.036-.197.126-.389.252-.586.384l-.046.029-.07.041.07-.041-.12.077c-1.749 1.1-3.506 2.202-5.305 3.228l-.515.287c-1.374.026-2.748.081-4.122.127h.091c-1.55.05-3.096.096-4.642.1C4.587 2.476 2.293 1.238 0 0Zm179.833-331.92c-1.348-.47-2.808-.6-4.228-.63 1.45.07 2.865.277 4.228.63z" transform="translate(985.962 1972.57)"/><path class="fill-fore" style="fill-opacity:1;fill-rule:nonzero;stroke:none" d="m0 0 .086.45C-1.51-.025-3.066-.586-4.581-1.344c-3.592-1.808-6.39-4.637-8.209-7.976-6.683-3.854-10.588-12.163-8.607-19.756 1.313-6.036 5.157-9.628 9.88-12.032l.394.015c1.717.091 3.445.207 5.168.243.702.01 1.409-.01 2.116-.03.576-.016 1.152-.031 1.733-.026 2.217.01 4.435.05 6.652-.025.904-.03 1.804-.157 2.703-.283.843-.121 1.672-.293 2.51-.445a6.4 6.4 0 0 0 1.243-.267c.823-.117 1.677-.298 2.38-.718 1.191-.702 2.106-1.651 2.535-2.995a5.118 5.118 0 0 0 .232-1.894C26.595-44.346 33.162-31.86 26.833-19.56c2.02 10.72-6.198 19.448-15.856 21.12L0 0Z" transform="translate(1430.225 842.748)"/><path class="fill-fore" style="fill-opacity:1;fill-rule:nonzero;stroke:none" d="M0 0c.07 0 .141-.005.212-.01-.025.005-.05.005-.076.01H0Z" transform="translate(1439.51 801.127)"/><path class="fill-fore" style="fill-opacity:1;fill-rule:nonzero;stroke:none" d="M0 0c-.136.08-.273.162-.41.247-.196.086-.398.172-.6.258l-.091.03A7.61 7.61 0 0 0 0 0Z" transform="translate(1442.65 800.18)"/><path class="fill-fore" style="fill-opacity:1;fill-rule:nonzero;stroke:none" d="M0 0c-133.452-19.822-235.398-113.721-328.864-203.848-42.507-40.178-88.035-77.028-134.184-112.918-40.436-30.944-81.256-62.404-127.956-83.403-25.09 45.144-57.802 93.052-100.946 122.365-36.238 19.755-86.09 11.906-114.267-18.307-57.49-63.869 23.691-148.09 89.945-161.092 61.232-13.83 121.97 12.976 174.837 41.693 91.612 56.555 174.595 126.93 253.23 200.206 66.97 62.632 136.098 129.011 223.78 160.89C30.5-23.003 136.068-15.325 233.1-41.506c9.446-2.849 19.7 3.308 22.271 12.649C262.53 1.626 204.433-.051 185.178 5.536c-24.353 3.107-48.933 4.612-73.528 4.612C74.214 10.148 36.743 6.658 0 0Zm-746.818-405.185c-19.544 14.841-41.593 35.148-43.113 61.122 2.106 28.909 34 42.613 59.813 40.76 37.491-.738 88.156-79.362 105.447-110.62a183.477 183.477 0 0 0-4.683-1.688l-.56-.247-.187-.005c-16.367-5.542-33.86-8.764-51.18-8.764-23.181 0-46.054 5.763-65.537 19.442z" transform="translate(936.085 2084.059)"/><path class="fill-fore" style="fill-opacity:1;fill-rule:nonzero;stroke:none" d="M0 0c-1.985-4.137-1.803-8.193-.57-12.093.575-.702 1.085-1.435 1.63-2.192-.025.03-.05.06-.075.096.212-.293.414-.586.621-.88.243-.287.495-.555.692-.888.248-.404.44-.798.657-1.197.212-.354.43-.708.636-1.066-.156.273-.313.545-.474.818.358-.596.727-1.177 1.08-1.783-.161.273-.318.546-.474.818.343-.596.697-1.182 1.045-1.773.061-.106.122-.207.182-.313.172-.293.344-.586.51-.884.288-.47.586-.92.87-1.379a.067.067 0 0 1 .014-.02c.005 0 .01-.01.016-.015h-.005c.09-.142.176-.283.262-.43-.07.127-.146.253-.222.374.945-1.237 1.793-2.536 2.622-3.849.5-.763 1.01-1.515 1.5-2.283-.167.268-.338.53-.51.798a148.34 148.34 0 0 0 1.096-1.682c.01-.015.02-.025.025-.04.01-.016.02-.026.025-.041a80.671 80.671 0 0 0 .42-.657c-.101.157-.202.319-.303.475 1-1.576 1.924-3.197 2.914-4.779-.106.162-.212.329-.318.496.849-1.349 1.627-2.728 2.47-4.082.08-.131.162-.257.243-.384l.01-.01c.005-.01.01-.015.01-.025a.04.04 0 0 0 .02-.02l-.344.803.718-1.238a29.911 29.911 0 0 0 2.07-2.829 42.977 42.977 0 0 0 1.526-2.586c.42-.773.804-1.57 1.273-2.313l-.51.798c.606-.945 1.147-1.829 1.622-2.85l-.41.88c.253-.54.581-1.066.9-1.571l-.081.126c.182-.288.358-.581.535-.874a18.693 18.693 0 0 1 4.642-2.222c18.963-13.937 40.457 11.8 23.302 28.01-4.172 5.581-9.314 10.274-12.588 16.492-4.773 7.137-8.8 16.195-17.775 18.68-1.541.43-3.112.636-4.678.636C9.74 11.053 2.854 6.814 0 0Z" transform="translate(275.187 1737.865)"/><path class="fill-fore" style="fill-opacity:1;fill-rule:nonzero;stroke:none" d="M0 0c-.035.07-.076.136-.116.207C-.076.137-.036.071 0 0Z" transform="translate(281.92 1714.479)"/><path class="fill-fore" style="fill-opacity:1;fill-rule:nonzero;stroke:none" d="M0 0v.005C-.03.06-.066.11-.096.167-.066.11-.03.055 0 0Z" transform="translate(280.137 1717.412)"/><path class="fill-fore" style="fill-opacity:1;fill-rule:nonzero;stroke:none" d="m0 0-.227.39L0 0Z" transform="translate(280.364 1717.025)"/><path class="fill-fore" style="fill-opacity:1;fill-rule:nonzero;stroke:none" d="M0 0c-.03.045-.066.086-.101.131C-.071.086-.035.045 0 0Z" transform="translate(281.51 1715.161)"/><path class="fill-fore" style="fill-opacity:1;fill-rule:nonzero;stroke:none" d="m0 0 89.884-.035L91.02-9.35l7.653.056-4.657 16.83-61.51.703L0 0Z" transform="translate(1353.907 800.77)"/><path class="fill-fore" style="fill-opacity:1;fill-rule:nonzero;stroke:none" d="M0 0c-.217-.611-.52-1.197-.839-1.763-.52-.91-1.04-1.818-1.545-2.743C-3.39-6.344-4.4-8.183-5.551-9.94c-.202-.313-.41-.621-.612-.93a16.092 16.092 0 0 0-1.015-2.343c-1.616-2.97-3.465-5.82-5.173-8.734-.207-.354-.419-.707-.636-1.061a25.636 25.636 0 0 0-.515-1.349c-.53-1.293-1.197-2.56-1.88-3.773-.1-.177-.196-.354-.302-.53-17.7-40.421-38.755-79.428-54.106-120.864-15.149-46.346-24.241-94.435-36.122-141.67a308.026 308.026 0 0 1-2.9-21.267c.273-2.172.284-4.38.031-6.562a23.332 23.332 0 0 0-.475-2.732c.046-.496.086-.985.126-1.47.288-3.557-.106-7.027-.894-10.437.01-.287.016-.57.01-.858-.035-2.632-.116-5.345-.661-7.946-.798-29.95 1.192-60.121 2.621-89.879 3.34-37.092 8.997-73.952 15.503-110.61 5.733-28.615 15.816-56.125 24.353-83.978 4.571-14.053 9.43-26.13 13.148-40.118.819-9.244 8.608-16.8 18.1-16.79 9.865 0 18.103 8.238 18.103 18.103-.368 8.451-3.859 16.397-6.273 24.414-7.38 21.205-14.053 42.643-20.777 64.071-8.006 23.499-13.027 47.806-16.391 72.376-8.325 49.634-12.866 99.764-11.962 150.121.025 16.119-.09 32.359 2.309 48.326.11 1.551.212 3.107.368 4.663.127 1.258.344 2.485.606 3.712-.01-.03-.015-.055-.02-.08.01.055.026.116.036.171.04.167.075.339.11.506.354 1.646.627 3.303.87 4.97.116 1.43.212 2.844.45 4.33.252 1.56.681 3.106 1.1 4.636.622 2.49 1.142 5.001 1.895 7.461.227.743.49 1.475.752 2.208.091.47.172.94.248 1.409.379 2.576.798 5.132 1.389 7.673.414 1.798 1.035 3.571 1.328 5.39-.192-1.233-.383-2.46-.58-3.693.833 5.32 2.197 10.446 3.268 15.705l.621 3.238c-.232-1.223-.465-2.445-.697-3.673.641 3.425 1.606 6.729 2.39 10.103.206 1.132.419 2.258.65 3.39-.15-.703-.302-1.405-.454-2.107.435 2.218.884 4.4 1.374 6.612-.268-1.212-.535-2.43-.803-3.647.576 2.652 1.06 5.324 1.606 7.986.415 1.743.864 3.46 1.299 5.193.434 2.157.868 4.31 1.48 6.43.328 1.147.717 2.274 1.086 3.405.08 1.45.187 2.895.54 4.344.475 1.945.96 3.86 1.571 5.759a28.256 28.256 0 0 0 1.162 3.026c.621 2.46 1.364 4.465 2.283 6.662.207.465.42.925.627 1.39.03.09.06.187.09.282a114.03 114.03 0 0 0-.495-1.151c.162.384.329.768.5 1.167.016.045.026.086.04.131l-.03-.111c.066.156.137.318.208.48-.071-.167-.142-.329-.212-.495-.02-.071-.04-.147-.066-.223.05.107.1.213.146.324.152.46.314.914.475 1.374.01.09.025.187.036.278-.081-.182-.157-.36-.238-.541.081.182.157.369.238.55.192 1.602.52 3.178.97 4.678.12.404.252.803.393 1.197a89.374 89.374 0 0 0 1.93 6.128c.015.065.035.126.05.186-.07-.186-.14-.373-.212-.56.162.444.314.894.43 1.354-.015-.071-.03-.147-.05-.223.64 2.102 1.54 4.122 2.636 6.062a28.23 28.23 0 0 0 1.142 2.783c.333 1.051.677 2.097 1.025 3.142.88 2.44 1.758 4.577 2.925 6.865 7.183 18.76 15.871 36.895 24.408 55.08 7.718 16.473 15.316 33 23.19 49.397 4.36 8.845 7.462 18.478 11.265 27.47 1.834 3.995 2.395 8.344 1.202 12.684C24.6-2.531 16.614 2.162 8.74 2.162 5.693 2.162 2.662 1.46 0 0Z" transform="translate(181.973 1087.562)"/><path class="fill-fore" style="fill-opacity:1;fill-rule:nonzero;stroke:none" d="M0 0c-.136-.48-.268-.96-.404-1.44.167.576.338 1.142.515 1.693C.076.172.041.086 0 0Z" transform="translate(136.532 898.063)"/><path class="fill-fore" style="fill-opacity:1;fill-rule:nonzero;stroke:none" d="M0 0c-.025-.06-.05-.126-.076-.187.228.43.465.864.717 1.308C.43.748.212.374 0 0Z" transform="translate(134.77 892.499)"/><path class="fill-fore" style="fill-opacity:1;fill-rule:nonzero;stroke:none" d="M0 0c0 .005.005.015.005.025L.081.89C.055.591.025.299 0 0Z" transform="translate(110.094 781.561)"/><path class="fill-fore" style="fill-opacity:1;fill-rule:nonzero;stroke:none" d="M0 0a.417.417 0 0 0-.02-.076C.086.212.187.5.293.788.197.525.096.263 0 0Z" transform="translate(140.717 912.813)"/><path class="fill-fore" style="fill-opacity:1;fill-rule:nonzero;stroke:none" d="m0 0-.288-1.243c.126.5.248.995.379 1.485L0 0Z" transform="translate(138.315 905.125)"/><path class="fill-fore" style="fill-opacity:1;fill-rule:nonzero;stroke:none" d="M0 0c-13.396-4.183-15.922-17.215-10.456-28.944 1.08-8.481 7.36-15.599 15.942-16.847 14.361-2.298 24.723 13.526 19.07 26.297-.79 2.277-1.604 4.53-2.285 6.85C20.124-4.819 12.624.681 4.731.682 3.156.682 1.567.462 0 0Z" transform="translate(129.602 470.62)"/><path class="fill-fore" style="fill-opacity:1;fill-rule:nonzero;stroke:none" d="M0 0c-24.03-55.343-36.435-114.858-44.861-174.403a81.29 81.29 0 0 0-.339-3.45c.344-2.36.38-4.759.106-7.128a23.536 23.536 0 0 0-.474-2.732c.04-.49.086-.98.126-1.47.288-3.556-.106-7.027-.894-10.431.01-.288.015-.576.01-.864-.025-1.93-.076-3.9-.318-5.834.171-.748.374-1.49.606-2.233 5.45-14.503 27.873-14.417 33.364 0 1.4 3.05 1.445 6.405 1.43 9.688.58 7.325 1.59 14.604 2.667 21.873.136 1.975.288 3.95.464 5.92-.11-1.243-.217-2.48-.328-3.723.202 2.359.318 4.708.556 7.067.121 1.238.338 2.45.596 3.657a.035.035 0 0 1-.008-.013l.013.048v.01c.01.03.02.066.025.101.036.167.07.334.111.506.349 1.646.627 3.303.87 4.97.11 1.43.206 2.844.444 4.33.252 1.56.682 3.106 1.106 4.636.424 1.723.808 3.45 1.253 5.173 4.258 24.797 9.612 49.448 16.477 73.644.369 1.47.763 2.92 1.228 4.37.075.236.156.469.232.701a596.803 596.803 0 0 0 3.187 10.492 571.783 571.783 0 0 1 1.854 4.874 28.746 28.746 0 0 0 .854 2.95 88.597 88.597 0 0 0 1.935 6.128c.015.065.03.126.05.192-.07-.187-.141-.38-.212-.566.162.444.313.894.43 1.354-.016-.071-.036-.147-.051-.218.641 2.102 1.54 4.122 2.632 6.062.333.945.712 1.87 1.146 2.778.334 1.051.672 2.097 1.026 3.142.909 2.531 1.818 4.728 3.046 7.113.97 2.41 1.97 4.814 3.005 7.193C38.865.202 27.57 10.972 16.16 10.972 9.886 10.972 3.576 7.719 0 0Z" transform="translate(118.287 953.518)"/><path class="fill-fore" style="fill-opacity:1;fill-rule:nonzero;stroke:none" d="m0 0-.015-.177c.05.101.096.202.146.303.122.359.238.718.354 1.076A35.007 35.007 0 0 0 0 0Z" transform="translate(71.112 760.97)"/><path class="fill-fore" style="fill-opacity:1;fill-rule:nonzero;stroke:none" d="M0 0v-.03l.227.687c.015.1.036.207.056.313C.192.647.096.323 0 0Z" transform="translate(71.065 750.608)"/><path class="fill-fore" style="fill-opacity:1;fill-rule:nonzero;stroke:none" d="M0 0a.417.417 0 0 1-.02-.076C.08.212.187.5.293.788.197.525.096.263 0 0Z" transform="translate(140.723 912.812)"/><path class="fill-fore" style="fill-opacity:1;fill-rule:nonzero;stroke:none" d="M0 0c-.08-.369-.167-.732-.253-1.101.006.005.006.01.01.02.107.445.223.884.339 1.324C.066.162.03.08 0 0Z" transform="translate(138.312 905.124)"/><path class="fill-fore" style="fill-opacity:1;fill-rule:nonzero;stroke:none" d="M0 0c-6.693-5.168-8.643-14.174-5.46-21.6l2.182-3.778c0-.005.005-.01.01-.015.197-.263.399-.52.596-.783-.02.04-.04.08-.056.121l.06-.126c.046-.056.087-.116.132-.172.096-.222.197-.444.298-.667.45-.853.904-1.687 1.394-2.54.197-.344.43-.662.627-1.006.086-.182.171-.368.252-.555l.162-.273a.616.616 0 0 0-.015.05c.01-.02.02-.04.03-.065 0-.01.005-.02.01-.03l8.315-14.397c3.192-3.455 6.92-5.91 11.805-6.612a16.93 16.93 0 0 1 3.415-.136c1.666-.01 3.374.227 4.9.681 2.247.676 4.138 1.648 5.847 2.926l-.028-.016a13.901 13.901 0 0 1 .878.692c0-.005-.005-.005-.005-.01.298.248.586.505.87.773a25.99 25.99 0 0 1 1.97 2.036c.974 1.116 1.666 2.43 2.232 3.793-.308-.606-.616-1.217-.92-1.829-.434-.641-.863-1.283-1.298-1.924v.005a15.397 15.397 0 0 1-.404-.404 18.321 18.321 0 0 1 2.93 4.94c.172.424.323.859.46 1.298l.136.405c-.035-.092-.066-.187-.1-.283.49 1.626.757 3.338.757 5.107 0 5.894-2.94 11.203-7.41 14.527-.03.06-.066.121-.097.177-.11.222-.217.45-.328.672.015-.046.03-.086.046-.126-.016.025-.03.05-.04.075.01-.025.024-.05.04-.08.065-.193.136-.39.202-.587-.005 0-.005.006-.01.006-.122.328-.238.646-.364.964-.13.266-.26.532-.392.797l.367-.731a49.695 49.695 0 0 1-1.688 3.9l-.848 1.646c.11-.217.222-.434.328-.656a48.176 48.176 0 0 1-1.5 2.753c-.06.1-.116.197-.177.293a23.94 23.94 0 0 1-1.369 2.834c-.465.828-1.03 1.61-1.56 2.389-.042.058-.084.12-.126.18h-.002c.364-.543.733-1.086 1.097-1.63a34.615 34.615 0 0 1-1.677 2.268c.035-.056.076-.116.116-.171-.045.06-.086.126-.131.186.086-.126.172-.247.252-.373.152-.223.304-.445.45-.662-.343.49-.692.964-1.035 1.444l-.062.076a.718.718 0 0 1 .041-.045c-.232.313-.454.631-.682.955l-.03.045c-3.45 4.597-8.885 6.976-14.346 6.976C7.143 3.708 3.217 2.49 0 0Zm13.31-19.76a18.663 18.663 0 0 1-5.621-6.608c.179.357.359.714.54 1.07h-.005l1.303 1.925-.005-.005c.51.581 1.02 1.157 1.53 1.738.581.51 1.157 1.02 1.738 1.53l-.005-.004c.172.12.348.237.525.353z" transform="translate(298.776 1718.182)"/><path class="fill-fore" style="fill-opacity:1;fill-rule:nonzero;stroke:none" d="M0 0c.111-.136.222-.273.333-.414-.03.05-.06.096-.096.141C.152-.172.066-.07-.02.025-.015.02-.01.01 0 0Z" transform="translate(324.902 1713.887)"/><path class="fill-fore" style="fill-opacity:1;fill-rule:nonzero;stroke:none" d="M0 0c.01-.015.025-.03.04-.045C0 0-.03.045-.06.09L0 0Z" transform="translate(325.154 1713.604)"/><path class="fill-fore" style="fill-opacity:1;fill-rule:nonzero;stroke:none" d="M0 0a.717.717 0 0 1 .015-.015L-.08.126l-.015.015C-.06.096-.03.045 0 0Z" transform="translate(325.235 1713.475)"/><path class="fill-fore" style="fill-opacity:1;fill-rule:nonzero;stroke:none" d="M0 0c.197-.384.389-.763.586-1.152C.237-.455-.111.242-.464.94-.305.621-.153.31 0 0Z" transform="translate(331.085 1703.383)"/><path class="fill-fore" style="fill-opacity:1;fill-rule:nonzero;stroke:none" d="M0 0c.045-.08.086-.167.126-.253-.01.026-.015.05-.025.076-.04.081-.086.167-.126.248C-.015.05-.005.025 0 0Z" transform="translate(332.797 1699.413)"/><path class="fill-fore" style="fill-opacity:1;fill-rule:nonzero;stroke:none" d="M0 0c.04-.086.086-.167.126-.252A4.59 4.59 0 0 0-.06.177L0 0Z" transform="translate(332.898 1699.235)"/><path class="fill-fore" style="fill-opacity:1;fill-rule:nonzero;stroke:none" d="M0 0h.003A3.987 3.987 0 0 1 0 0Z" transform="translate(296.033 1692.149)"/><path class="fill-fore" style="fill-opacity:1;fill-rule:nonzero;stroke:none" d="M0 0c-.106.212-.207.42-.303.626-.142.278-.288.556-.43.839 0 .005 0 .005-.004.005C-.49.98-.247.49 0 0Z" transform="translate(296.842 1690.537)"/><path class="fill-fore" style="fill-opacity:1;fill-rule:nonzero;stroke:none" d="M0 0c-.04.076-.076.152-.116.227C-.081.152-.04.076 0 0Z" transform="translate(296.958 1690.306)"/><path class="fill-fore" style="fill-opacity:1;fill-rule:nonzero;stroke:none" d="M0 0a15.02 15.02 0 0 0-.258-.662c.04.086.086.172.132.258h-.005l.181.53A.958.958 0 0 0 0 0Z" transform="translate(339.455 1677.138)"/><path class="fill-fore" style="fill-opacity:1;fill-rule:nonzero;stroke:none" d="M0 0c.04-.046.076-.086.116-.127a79.86 79.86 0 0 1-.121.142L0 0Z" transform="translate(307.328 1672.322)"/><path class="fill-fore" style="fill-opacity:1;fill-rule:nonzero;stroke:none" d="M0 0c-.101.116-.202.232-.303.344C-.202.227-.101.116 0 0Z" transform="translate(307.642 1671.965)"/><path class="fill-fore" style="fill-opacity:1;fill-rule:nonzero;stroke:none" d="M0 0c.131-.146.278-.308.44-.49l-.455.515L0 0Z" transform="translate(307.359 1672.272)"/><path class="fill-fore" style="fill-opacity:1;fill-rule:nonzero;stroke:none" d="M0 0c-.05.06-.101.116-.151.177a1.023 1.023 0 0 0-.051.055C-.136.154-.07.08 0 0Z" transform="translate(307.596 1672.017)"/><path class="fill-fore" style="fill-opacity:1;fill-rule:nonzero;stroke:none" d="m0 0 .074-.084-.327.377C-.167.192-.086.096 0 0Z" transform="translate(307.849 1671.728)"/><path class="fill-fore" style="fill-opacity:1;fill-rule:nonzero;stroke:none" d="m0 0-.226.255L0 0Z" transform="translate(308.15 1671.39)"/><path class="fill-fore" style="fill-opacity:1;fill-rule:nonzero;stroke:none" d="M0 0Z" transform="translate(307.777 1671.809)"/><path class="fill-fore" style="fill-opacity:1;fill-rule:nonzero;stroke:none" d="m0 0-.251.284L0 0Z" transform="translate(308.12 1671.42)"/><path class="fill-fore" style="fill-opacity:1;fill-rule:nonzero;stroke:none" d="m0 0-.117.132L0 0Z" transform="translate(308.238 1671.288)"/><path class="fill-fore" style="fill-opacity:1;fill-rule:nonzero;stroke:none" d="M0 0c-.212-.177-.43-.344-.652-.51.142.08.278.161.42.242.136.137.272.278.414.415C.122.096.06.045 0 0Z" transform="translate(333.944 1669.725)"/><path class="fill-accent" style="fill-opacity:1;fill-rule:nonzero;stroke:none" d="M0 0a771.98 771.98 0 0 1 9.35-5.354A737.576 737.576 0 0 1 1.611.556 200.85 200.85 0 0 1 0 0Z" transform="translate(625.195 2029.662)"/><path class="fill-accent" style="fill-opacity:1;fill-rule:nonzero;stroke:none" d="M0 0c.096-.056.197-.106.293-.162 3.53-1.985 7.112-3.89 10.719-5.733a362.784 362.784 0 0 1-5.673 4.284A644.526 644.526 0 0 0 2.111.783C1.41.52.702.263 0 0Z" transform="translate(592.518 2017.984)"/><path class="fill-accent" style="fill-opacity:1;fill-rule:nonzero;stroke:none" d="M0 0c1.07.46 2.056.99 2.95 1.581a540.777 540.777 0 0 0-1.94.707A6.773 6.773 0 0 0 0 0Z" transform="translate(687.175 2011.915)"/><path class="fill-accent" style="fill-opacity:1;fill-rule:nonzero;stroke:none" d="M0 0c1.187.364 2.37.722 3.561 1.086-.278.06-.555.131-.838.217-.965.283-1.89.652-2.824 1.005-.738.278-1.475.561-2.208.844A26.95 26.95 0 0 0 0 0Z" transform="translate(674.663 2008.018)"/><path class="fill-accent" style="fill-opacity:1;fill-rule:nonzero;stroke:none" d="M0 0c.818-.465 1.642-.925 2.46-1.384-.465.338-.93.672-1.394 1.01l-.738.5L0 0Z" transform="translate(566.488 2008.075)"/><path class="fill-accent" style="fill-opacity:1;fill-rule:nonzero;stroke:none" d="M0 0c.167.066.328.126.495.192C.091.389-.313.586-.717.788-.475.525-.237.263 0 0Z" transform="translate(590.684 1978.457)"/></g></g></svg>