<svg viewBox="0 0 142 181" fill="none" xmlns="http://www.w3.org/2000/svg" role="img" aria-labelledby="svgProfile" class="scandi"><title id="svgProfile">Josh Crain Illustration</title><path d="M97.983 35.589a.955.955 0 0 1 .08-.061 11.17 11.17 0 0 0-.27-.504l-.07-.003c.098.169.18.364.26.568ZM126.48 65.67c1.245 13.378-4.437 25.354-12.692 26.748-8.254 1.395-15.955-8.318-17.201-21.696-.057-.61-.1-1.22-.128-1.831-.156-.385-.237-.928-.18-1.646.195-4.838.48-9.69.02-14.513-.364-5.178-1.24-10.266-2.288-15.269-.482-2.31-1.147-4.572-1.591-6.9a9.798 9.798 0 0 1-.47-1.645c-.514-2.632.016-5.3 1.25-7.26l.276-.252c.15-.14.295-.289.45-.418.201-.152.403-.299.601-.454.112-.084.228-.163.348-.236.054-.027.107-.052.163-.077a6.196 6.196 0 0 1 .802-.214c.111-.024.222-.05.333-.073l.176-.037.219-.045a.424.424 0 0 1 .034-.005 7.307 7.307 0 0 1 .302-.043l.251.016.252.017a42.299 42.299 0 0 0 .505.024 9.378 9.378 0 0 1 .364.096l.295.085.153.046.153.046.133.042c.087.028.173.056.26.086.037.012.075.025.112.039l.102.035.152.056c.096.036.192.072.288.11.095.036.192.073.287.111l.017.007.129.05.206.084.113.046.238.096.345.167.151.073.067.03.145.07.101.046.338.15.586.259c.129.063.258.127.387.193l.022.011.362.188c.105.062.211.125.317.186l.056.034.474.275.138.081.191.113c.009.005.019.01.027.016a11.927 11.927 0 0 1 .118.07l.141.085c.047.03.094.06.141.088l.075.048a23.35 23.35 0 0 1 .761.502l.113.08.114.08.113.083.411.306.15.111.202.15c3.314 2.878 6.253 6.476 8.915 10.349 3.481 4.8 6.305 10.405 7.96 16.687.525 2.841 2.432 8.874 2.418 12.32.091.64.167 1.28.227 1.923ZM56.885 14.84c1.337-.235 2.323 1.472 1.456 2.515-.977 1.021-3.037.735-4.363 1.162-10.112 2.123-18.271 8.058-23.838 16.702-.698 1.062-1.43 2.105-2.068 3.204-.172.661-.822 1.14-1.5 1.14-.072 0-.144-.005-.216-.016-1.8-.364-1.52-2.226-.59-3.366a88.354 88.354 0 0 1 2.851-4.245c6.39-9.52 16.93-15.708 28.268-17.096ZM12.432 152.954c0-7.81 6.33-14.142 14.142-14.142 7.81 0 14.142 6.332 14.142 14.142 0 7.809-6.332 14.142-14.142 14.142-7.811 0-14.142-6.333-14.142-14.142Z" class="fill-fore" opacity=".25"/><path d="M122.468 162.248a6.531 6.531 0 1 1 0 13.062 6.531 6.531 0 0 1 0-13.062ZM50.298 71.106c4.968 15.137-1.02 30.606-13.375 34.553-12.355 3.946-26.398-5.126-31.367-20.263a35.929 35.929 0 0 1-.648-2.208c-1.752-3.68-2.78-14.777-2.78-14.777 0-8.911.346-15.673 2.846-23.104 1.81-5.898 4.15-11.686 7.382-16.949l.21-.293.154-.218.31-.436a28.095 28.095 0 0 1 .475-.647c.075-.1.152-.198.229-.296v-.001l.03-.038c.117-.15.235-.298.353-.445l.094-.116.083-.102c.089-.11.178-.22.269-.328l.079-.093.079-.092.006-.008a.405.405 0 0 1 .014-.015l.03-.037.093-.108.084-.096.034-.04.085-.098.101-.117.08-.092.014-.016.211-.242.152-.175.077-.087.076-.087.417-.48a49.251 49.251 0 0 1 .89-.93l.35-.33c.349-.331.698-.662 1.04-1l.056-.056.274-.274.328-.33a63.14 63.14 0 0 1 .384-.35l.074-.066a87.797 87.797 0 0 1 .506-.453l.077-.068.192-.169.122-.107.195-.17c.185-.16.372-.316.562-.47l.014-.012a16.305 16.305 0 0 1 .176-.142l.088-.07a45.362 45.362 0 0 1 .682-.53c.213-.163.428-.323.645-.48l.055-.027.054-.027.107-.054.135-.07c.082-.041.165-.084.247-.127l.225-.118a43.147 43.147 0 0 0 .572-.304 14.397 14.397 0 0 1 .498-.169c.1-.03.2-.058.3-.086.267-.077.536-.152.805-.227l.094-.026c.378-.106.76-.205 1.147-.274.09-.01.179-.018.269-.024.204-.002.405.006.609.023.359.036.717.06 1.076.09.286.036.564.1.848.15.171.031.343.06.514.09 2.728 1.282 4.819 3.79 5.417 6.944a9.55 9.55 0 0 1 .164 2.073c.544 2.782.741 5.64 1.222 8.43 1.038 6.044 2.358 12.067 4.449 17.849 1.775 5.465 4.618 10.469 7.328 15.517.44.73.599 1.365.572 1.88.268.674.515 1.356.74 2.045ZM87.116 125.083c1.146.675.467 2.273-.604 2.273-.196 0-.406-.053-.62-.177-4.536-2.43-9.064-5.549-11.252-10.379-.365-.934-1.273-2.03-.768-3.045.534-1.056 2.23-.659 2.274.51.516 1.229 1.192 2.578 1.902 3.64 1.373 1.966 3.23 3.538 5.204 4.875 1.249.834 2.55 1.579 3.864 2.303Z" class="fill-accent" opacity=".8"/><path d="M10.252 82.638c-2.083-4.796-3.158-9.954-3.888-15.115-.008-.1-.018-.2-.03-.299a2.384 2.384 0 0 0-.032-.854l.011-.128a2.936 2.936 0 0 0-.077-.904v-.075a4.56 4.56 0 0 0-.027-.505c.015-.065.032-.13.053-.194.472-1.257 2.415-1.25 2.891 0 .121.265.125.555.124.84.05.635.138 1.266.231 1.895.012.172.025.343.04.513l-.028-.322c.017.204.028.408.048.612a2.832 2.832 0 0 0 .051.316l.001.004.002.01.01.044c.03.142.054.286.075.43.01.124.018.247.039.376.022.135.059.269.096.402.037.149.07.299.108.448a61.534 61.534 0 0 0 1.428 6.382c.032.128.066.253.107.38l.02.06c.09.304.181.607.276.91.054.14.108.28.16.421.02.087.046.172.075.256a7.641 7.641 0 0 0 .153.499c.014.038.028.077.038.117l-.005-.019c.056.182.134.358.228.526.03.082.062.162.1.24a4.947 4.947 0 0 0 .353.889c.084.21.17.417.26.624.477 1.239-.502 2.172-1.491 2.172-.544 0-1.09-.282-1.4-.951ZM101.228 72.436l-.208-.004c-.417-.007-.833-.02-1.25-.032-1.01-1.784 1.313-2.411 2.723-3.076 3.003-1.43 5.965-2.945 8.972-4.37a420.51 420.51 0 0 0 3.01-1.452c1.619-.595 3.283-2.304 5.082-1.484 1.341.781 2.219 2.153 3.418 3.117 1.036.872.349 2.718-.995 2.724-1.587-.132-2.395-1.924-3.577-2.813-3.705 1.899-7.499 3.616-11.218 5.485-1.33.657-2.659 1.315-4.006 1.935-.649-.034-1.3-.036-1.951-.03Z" class="fill-fore"/><path fill-rule="evenodd" clip-rule="evenodd" d="M68.021 125.322c5.722 7.394 14.227 12.46 22.882 15.724 1.072.304 2.167.627 3.278.955l.002.001.008.002.01.003.002.001c1.442.426 2.91.86 4.397 1.271-1.532 1.52-2.942 4.13-3.48 5.134-1.009 1.945-1.626 4.022-2.246 6.105-.44 1.481-.882 2.966-1.466 4.407-1.016 1.825-2.203 3.576-3.392 5.329-1.111 1.639-2.224 3.28-3.2 4.985.014.088.027.176.038.264.02.169.043.337.067.505.142.245.278.493.415.741l.033.061.08.146.597.321c.134 0 .268-.004.402-.009h-.007l.084-.003.273-.008.044-.025c.156-.088.309-.184.46-.279l.01-.007.005-.003.05-.033c.07-.09.147-.177.222-.263l.04-.044.075-.086c1.033-1.792 2.202-3.504 3.372-5.216.881-1.29 1.763-2.581 2.585-3.905.917-1.578 1.427-3.332 1.933-5.075v-.002l.199-.679c.937-3.193 2.044-6.425 4.144-9.058.373-.455.759-.897 1.178-1.309.429-.265.842-.616 1.01-1.086 3.231.76 6.501 1.297 9.7 1.297 4.272 0 8.418-.959 12.17-3.625 6.354-4.511 6.231-12.49 5.931-19.477-.079-1.572.939-2.548 1.876-3.445 1.325-1.27 2.486-2.382.14-4.805 2.564-2.213 2.096-3.53 1.541-5.093-.397-1.119-.839-2.363-.247-4.153.268.025.533.037.794.037 4.767 0 8.071-4.067 6.848-9.216-.837-3.588-3.147-6.507-5.405-9.36l-.002-.003c-.455-.575-.909-1.148-1.347-1.724-.873-1.258-1.944-2.34-3.014-3.423-.957-.967-1.914-1.934-2.728-3.026a2.38 2.38 0 0 1-.283-.396c.223-2.452.394-4.91.183-7.356.203-3.722.068-7.462-.528-11.145-.66-4.017-2.039-7.804-3.423-11.604-.543-1.492-1.087-2.985-1.588-4.495-.134-.315-.291-.735-.471-1.216l-.001-.002v-.002c-.571-1.526-1.367-3.655-2.339-4.905a9.85 9.85 0 0 0 .273-.174c3.069-1.644 5.769-3.907 8.019-6.559.286-.42.789-.965 1.356-1.582 1.953-2.12 4.667-5.069 1.916-6.508-6.257-1.253-11.8-4.64-17.2-7.941l-.021-.012a436.51 436.51 0 0 0-.807-.493c-3.669-2.267-7.6-4.046-11.527-5.81-.551-.246-1.102-.494-1.653-.742C96.894 5.7 93.49 4.167 89.91 3.13 75.5-.576 60.11-.294 45.757 3.543c-10.25 3.14-19.448 9.572-26.349 17.73-3.552 4.35-6.103 9.33-8.205 14.523-.07.125-.126.26-.162.403-.211.529-.418 1.06-.621 1.593l.031.001h.002l.135.005c-.1.297-.202.591-.306.889-.14.4-.282.806-.422 1.234-.192.629-.394 1.255-.596 1.882-.573 1.78-1.147 3.562-1.514 5.396-.564 3.177-1.054 6.372-1.344 9.586l-.063 1.263c-.11 2.167-.222 4.354-.164 6.527a3.603 3.603 0 0 1 .057.763c.068.295.102.596.077.904v.008l-.01.12a2.375 2.375 0 0 1 .038.806 26.7 26.7 0 0 0 .25 1.842c.326 1.295.628 2.596.93 3.898.651 2.816 1.304 5.634 2.202 8.38.838 2.263 1.872 4.442 2.907 6.62.607 1.28 1.214 2.56 1.782 3.855l.019.034.007.012a2.982 2.982 0 0 1 .207.444c.02.03.038.061.056.092.054.094.11.186.167.28.096.157.193.315.28.477.036.065.065.133.089.203l.053.08c.1.153.187.312.274.472l.02.036.016.028.098.174.001.001a1.476 1.476 0 0 1 .072.151.491.491 0 0 0 .012.007c1.61 2.895 3.458 5.673 5.304 8.449 4.186 6.296 8.364 12.579 9.748 20.187 1.602 6.574.008 12.969-2.845 18.866-2.886-.99-5.906-1.455-8.94-.77-5.742 1.127-12.777 8.426-7.795 13.961 2.442 2.619 6.763 3.299 9.903 1.587 3.74-2.541 6.575-6.693 8.749-10.605 3.988 1.793 7.481 4.467 10.936 7.11l.153.118c4 3.11 7.946 6.304 11.63 9.786 8.1 7.811 16.935 15.949 28.501 17.667 3.184.577 6.432.879 9.677.879 2.131 0 4.261-.13 6.372-.399.391-.114.967-.193 1.612-.281 2.106-.288 4.946-.677 4.471-2.7-.223-.809-1.111-1.343-1.93-1.096-8.41 2.269-17.558 1.603-25.785-1.119-7.355-2.674-13.203-8.148-18.833-13.418l-.561-.526c-6.816-6.35-14.007-12.449-21.947-17.351a55.122 55.122 0 0 0-3.29-1.663c2.048-4.211 3.49-8.671 3.674-13.406.133-7.386-2.415-14.587-5.959-20.982-1.404-2.331-2.925-4.592-4.447-6.852-2.334-3.467-4.667-6.934-6.576-10.656a28.92 28.92 0 0 1-.191-.387l-.037.031a12.366 12.366 0 0 0-.38-.866c-.477-.993-.942-1.991-1.407-2.99l-.603-1.29-.197-.419c-.675-1.436-1.351-2.873-1.918-4.355a4.986 4.986 0 0 1-.342-.868 2.443 2.443 0 0 1-.1-.24 2.644 2.644 0 0 1-.228-.526l.005.02a1.202 1.202 0 0 0-.038-.118l.019.049-.003-.008c0-.003 0-.005-.002-.009a7.641 7.641 0 0 1-.167-.53 2.413 2.413 0 0 1-.118-.51 1.807 1.807 0 0 1-.021-.048l.02.048v-.012c-.002-.004-.002-.009-.003-.013l-.008-.024a.616.616 0 0 0-.044-.121l-.002-.002c.003.006.005.013.006.02l.019.042-.018-.042.002.01c-.001-.004-.001-.007-.003-.01l-.015-.035-.029-.067c.015.033.03.066.043.1l-.008-.025-.054-.12a3.903 3.903 0 0 1-.198-.578 2.425 2.425 0 0 1-.1-.262 7.188 7.188 0 0 1-.137-.5 2.06 2.06 0 0 1-.046-.376l-.024-.07a5.631 5.631 0 0 1-.07-.225 6.932 6.932 0 0 1-.129-.557l-.035-.139-.077-.311c-.02-.093-.037-.185-.055-.277a20.73 20.73 0 0 0-.085-.415l.06.266a24.492 24.492 0 0 1-.109-.523l.04.182c-.02-.098-.04-.195-.057-.294-.024-.105-.05-.209-.077-.313a9.39 9.39 0 0 1-.126-.539l.056.295-.054-.28c-.033-.164-.07-.327-.106-.49a13.755 13.755 0 0 1-.17-.835l.043.28v.003a2.7 2.7 0 0 0-.068-.287c-.016-.06-.033-.12-.047-.18a8.214 8.214 0 0 1-.12-.665 4 4 0 0 0-.021-.122l-.003-.006c-.022-.061-.044-.123-.063-.185-.045-.148-.08-.3-.116-.45-.016-.065-.03-.13-.047-.196l-.004-.013a3.753 3.753 0 0 1-.092-.39 4.118 4.118 0 0 1-.036-.33c0-.015-.001-.03-.003-.044a6.796 6.796 0 0 0-.075-.431l-.01-.044-.002-.011-.001-.004.001.007a2.96 2.96 0 0 1-.052-.322 11.789 11.789 0 0 1-.032-.404c-.197-1.31-.198-2.643-.2-3.967v-.221c-.078-4.365.315-8.71 1.037-13.01.291-2.13.726-4.237 1.42-6.273l.114-.362c.544-1.736 1.089-3.473 1.687-5.191.052-.174.11-.348.169-.522.082-.244.164-.488.23-.735 2.824-7.671 7.256-14.727 13.566-20.005 8.386-7.49 19.077-12.106 30.29-12.986 10.98-1.513 22.313-.914 32.954 2.27 6.982 2.715 13.926 5.698 20.441 9.41.63.378 1.26.76 1.892 1.143 4.959 3.006 10.013 6.069 15.634 7.563l-.465.565-.003.003c-2.239 2.723-4.513 5.489-7.477 7.445-.297.177-.598.372-.903.57-1.476.958-3.054 1.983-4.82 1.362-5.524-1.213-11.098-2.307-16.752-2.653-9.894-1.041-10.036 1.797-6.458 10.036.438 1.183 1.14 2.363 1.85 3.554 1.68 2.822 3.396 5.704 1.709 8.842-1.631 2.9-4.369 4.778-7.083 6.64-1.111.763-2.22 1.523-3.245 2.35a25.66 25.66 0 0 0-5.995 6.243c-4.98.122-9.96.175-14.94.021-3.546-.035-7.093.185-10.625.478-1.238.133-2.487.28-3.7.569-3.727-.003-7.331 1.193-9.713 4.359-2.907 3.704-3.024 8.818-2.177 13.264.962 4.727 3.634 8.956 6.497 12.765 3.21 3.74 6.97 7.433 11.801 8.882 2.669 1.066 4.706-.787 5.812-3.077.947 6.331 2.239 12.935 5.938 18.292ZM50.212 73.965c3.122.044 6.487 1.131 9.22 2.903 2.074 1.453 3.803 3.433 4.996 5.664.263.467.447.995.632 1.525.358 1.024.717 2.053 1.648 2.654 2.58.94 9.313 1.943 11.356-.152.547-.71.422-1.573.3-2.413a9.12 9.12 0 0 1-.098-.859c-.078-1.436.04-2.878.317-4.289.4-2.2 1.202-4.262 2.305-6.151 1.354-.039 2.707-.08 4.06-.12h.002c4.459-.133 8.918-.266 13.378-.322a.613.613 0 0 1 .192-.032c.32-.002.641.008.962.018l.11.004.118.004.57.016c.417.006.835.012 1.252.02.532-.004 1.063.002 1.594.03.757.015 1.514.032 2.271.049 3.027.067 6.054.135 9.082.111a56.337 56.337 0 0 0 3.2-.147c-.999.32-2.002.63-3.005.938h-.001l-1.432.442c-.279.086-.594.175-.93.27h-.002l-.002.001-.003.001h-.001c-2.778.785-6.935 1.96-3.651 5.12 2.614 3.165 5.898 5 9.775 6.06-.129 3.409.472 6.784 3.498 8.706.338.12.654.175.951.175 3.433-.001 4.296-7.46 4.71-11.035.043-.366.08-.691.115-.964.288.296.581.588.874.88h.001a39.744 39.744 0 0 1 1.655 1.716c.615.801 1.258 1.59 1.902 2.383 2.088 2.564 4.193 5.15 5.406 8.234 1.727 5.398-1.879 7.425-6.714 5.756-.715-.2-1.725-.038-2.741.124l-.009.002c-2.095.336-4.212.671-3.801-2.162.045-.237.141-.463.237-.689.177-.417.353-.831.196-1.298-.78-2.011-3.011-1.153-3.335.708-1.084 2.891.696 6.609 3.973 6.772.905.125 1.8-.016 2.688-.156l.008-.002c.716-.113 1.428-.226 2.137-.199a6.217 6.217 0 0 1-.041.146c-.653 2.164-.243 4.368.63 6.402a1.504 1.504 0 0 0-.071.029l.038-.013c-.426.168-.75.492-1.072.815-.121.121-.241.242-.366.354-.562.475-1.233.804-1.923 1.048-1.308.42-2.66.689-4.011.957-2.064.411-4.126.821-6.031 1.767-.78.323-1.178 1.281-.835 2.057.365.706.825.941 1.33.941.507 0 1.059-.236 1.607-.471.237-.101.473-.202.704-.283 1.173-.395 2.388-.675 3.602-.914l.481-.089c1.663-.306 3.384-.622 4.935-1.297.178.259.408.521.695.785l-.294.275c-1.047.978-2.157 2.014-2.47 3.459-.396 1.894-.325 3.822-.254 5.752.075 2.048.151 4.097-.332 6.11-.949 6.256-6.948 9.898-12.9 10.218-5.209.275-10.305-1.025-15.296-2.358-6.729-1.626-13.13-4.323-18.815-8.302-3.479-2.415-6.874-5.117-9.27-8.655-2.141-3.317-3.21-7.21-4.126-11.015-.315-1.404-.516-2.835-.717-4.266-.26-1.859-.52-3.717-1.032-5.512-.35-.899-1.375-1.457-2.298-1.062-.933.452-1.33 1.417-1.72 2.364-.175.423-.347.842-.566 1.21-.173.282-.323.58-.469.867-.587 1.163-1.091 2.162-2.723 1.329-3.645-1.31-6.487-4.13-9.05-6.936-3.93-4.801-7.309-10.7-6.831-17.106.299-6.16 4.221-8.726 8.835-8.894.12.028.244.043.369.043.107-.015.214-.032.321-.05Zm72.258-4.509a21.167 21.167 0 0 1-.729-.035l-.076-.004-.238-.015-.227-.014c-.26.02-.521.04-.781.046-.081.001-.161 0-.241-.003a.458.458 0 0 1-.282.095h-.011a8.302 8.302 0 0 1-.374-.001l-.095-.003-.143-.003a9.542 9.542 0 0 1-.563-.022 8.653 8.653 0 0 1-.468-.053l-.169-.021a10.103 10.103 0 0 0-.626-.058l-.007-.001c-.01 0-.02 0-.03-.002h-.003l-.06-.004c-1.211.093-2.428.122-3.641.143-2.631.005-5.26-.057-7.891-.119H105.796c-4.089-.096-8.177-.192-12.266-.037-2.293.06-4.587.132-6.881.204h-.015c-1.158.037-2.316.074-3.474.108a26.016 26.016 0 0 1 5.025-4.508c5.58-3.746 13.767-9.284 10.344-17.059-.557-1.15-1.171-2.284-1.786-3.42-1.636-3.02-3.28-6.054-3.88-9.467 5.73-.421 11.511.65 17.151 1.695l.869.16c.655.124 1.285.274 1.898.42 1.408.336 2.726.65 4.065.57.112.399.368.73.627 1.066.248.323.499.649.63 1.041 2.491 5.922 4.746 12.027 6.306 18.266.674 3.356.896 6.79.815 10.211a.452.452 0 0 1 .129.287h-.001a.435.435 0 0 1-.137.347l-.011.01a.533.533 0 0 1-.092.066.555.555 0 0 1-.206.062.546.546 0 0 1-.108.023l-.06.012h-.002c-.052.01-.103.02-.155.027h-.002c-.078.011-.155.022-.232.025-.153.005-.305.004-.457.003l-.12-.001h-.055l-.095.002a4.516 4.516 0 0 1-.184.003c-.114-.003-.229-.01-.343-.016l-.104-.005-.03-.002a28.333 28.333 0 0 0-.422-.016l-.067-.003Zm1.401 3.593-.064.302-.066.307c-.217 1.054-.494 2.094-.77 3.134a61.374 61.374 0 0 0-.721 2.895 95.38 95.38 0 0 1-.147.938c-.496 3.125-1.226 7.71.65 9.996 1.174-2.668 1.486-5.596 1.793-8.482l.001-.001c.057-.54.114-1.077.177-1.611.041-.653.093-1.305.149-1.959l.001-.002v-.004l.001-.001.001-.003v-.002h.001v-.005l.001-.001v-.003l.001-.002v-.005h.001v-.005l.001-.002v-.007h.001v-.004l.001-.004v-.002l.001-.002v-.008l.001-.004v-.001l.001-.002v-.006h.001v-.005l.001-.001v-.01l.001-.001v-.012l.001-.004.001-.006v-.004l.001-.002v-.003l.001-.002v-.004l.001-.001v-.01l.001-.007V78.412l.001-.002V78.401l.001-.001v-.004l.001-.002v-.008l.001-.001v-.005l.001-.002v-.01l.001-.001v-.011h.001v-.01l.001-.002v-.003l.001-.002v-.004l.001-.001v-.004l.001-.001v-.006l.001-.002v-.003l.001-.001v-.004l.001-.002v-.003l.001-.004v-.002l.001-.002v-.001l.001-.003v-.002l.001-.001v-.003l.001-.003v-.003l.001-.002v-.002l.001-.002v-.003l.001-.003v-.003l.001-.004v-.003h.001v-.038.002-.005l.004.02.002-.272v-.007l.027-4.782-.046-.007h-.002l-.951-.135.007.039-.041-.013-.048-.015ZM67.465 73h.001c1.94.023 3.88.046 5.817.026 1.34-.023 2.681-.051 4.022-.084-1.71 3.571-2.522 7.541-2.067 11.54-2.291.348-4.59.029-6.83-.484-1.508-4.686-4.916-8.768-9.327-10.968 2.79-.095 5.588-.063 8.384-.03Zm51.473 7.486c-.075.528-.152 1.075-.224 1.634-.308-.1-.615-.207-.92-.314l-.287-.1-.019-.005c.812-1.803 1.27-3.826 1.108-5.798a2.285 2.285 0 0 0-.05-.409c.552-.179 1.103-.362 1.652-.551l-.105.41c-.395 1.54-.791 3.079-1.086 4.641l-.069.49v.002Zm-92.16 64.201-.241-.108-.002-.001h-.017c-1.418-.481-2.934-.76-4.435-.76-2.01 0-3.991.5-5.68 1.685-1.694 1.286-3.605 3.046-3.736 5.297.182 2.506 2.946 3.693 5.183 3.533 2.311-.046 5.199-3.505 7.213-6.473l.005-.026.036-.211v-.004l.009-.05.006-.043.026-.044.026-.043a10.767 10.767 0 0 1 .11-.181l.006-.008v-.001l.001-.001v-.001l-.028.068.061-.106a2.735 2.735 0 0 0 .345-.531 1.86 1.86 0 0 1 .079-.14l-.033.052c.047-.075.09-.147.128-.228l-.034.073c.021-.046.05-.09.077-.134l.006-.01-.02.03c.078-.122.147-.248.209-.377.013-.027.027-.051.042-.076.038-.056.08-.11.124-.165.097-.123.195-.247.243-.391a.736.736 0 0 0 .037-.186l.254-.439Zm87.877-64.306a14.108 14.108 0 0 1-3.202-2.713c.726-.222 1.454-.44 2.182-.659h.003c.62-.187 1.24-.373 1.86-.562l.003.01c.019.648-.092 1.292-.209 1.927-.152.683-.343 1.361-.637 1.998Z" class="fill-fore"/></svg>