<svg xmlns="http://www.w3.org/2000/svg" viewBox="0 0 142 181.5" role="img" aria-labelledby="svgProfile" class="scandi"><title id="svgProfile">Josh Crain Illustration</title><path d="M97.98 35.59s.05-.04.08-.06c-.09-.17-.18-.34-.27-.5h-.07c.1.17.18.36.26.57Zm28.5 30.08c1.25 13.38-4.44 25.35-12.69 26.75-8.25 1.39-15.96-8.32-17.2-21.7-.01-1.3-.34-2.05-.31-3.48.19-4.84.48-9.69.02-14.51-.36-5.18-1.24-10.27-2.29-15.27-8.86-27.24 12.68-18.06 21.86-2.72 3.48 4.8 6.31 10.4 7.96 16.69.53 2.84 2.43 8.87 2.42 12.32.09.64.17 1.28.23 1.92m-69.6-50.83c1.34-.23 2.32 1.47 1.46 2.51-.98 1.02-3.04.74-4.36 1.16-10.11 2.12-18.27 8.06-23.84 16.7-.7 1.06-1.43 2.1-2.07 3.2-.17.66-.82 1.14-1.5 1.14-.07 0-.14 0-.22-.02-1.8-.36-1.52-2.23-.59-3.37.91-1.44 1.86-2.86 2.85-4.24C35 22.4 45.54 16.21 56.88 14.82ZM12.43 152.95c0-7.81 6.33-14.14 14.14-14.14s14.14 6.33 14.14 14.14-6.33 14.14-14.14 14.14-14.14-6.33-14.14-14.14" class="fill-fore" opacity=".25"/><path d="M122.47 162.25a6.54 6.54 0 0 1 6.54 6.53 6.54 6.54 0 0 1-6.53 6.54c-3.61 0-6.53-2.93-6.53-6.54 0-3.6 2.92-6.52 6.53-6.53Zm-85.55-56.59c-12.35 3.95-26.4-5.13-31.37-20.26-4.15-13.26-4.49-26.89-.58-40.09 1.81-5.9 4.15-11.69 7.38-16.95 4.48-5.9 13.02-17.36 20.73-9.8 3.57 4.12 3.17 10.14 4.13 15.25 1.04 6.04 2.36 12.07 4.45 17.85 2.23 6.75 6.39 12.76 8.64 19.44 4.97 15.14-1.02 30.61-13.38 34.55Zm50.2 19.42c1.15.68.47 2.27-.6 2.27-.2 0-.41-.05-.62-.18-4.54-2.43-9.06-5.55-11.25-10.38-.36-.93-1.27-2.03-.77-3.04.53-1.06 2.23-.66 2.27.51.52 1.23 1.19 2.58 1.9 3.64 1.37 1.97 3.23 3.54 5.2 4.88 1.25.83 2.55 1.58 3.86 2.3Z" class="fill-accent" opacity=".8"/><path d="M10.25 82.64c-2.37-5.65-3.71-11.78-4.04-17.88.29-1.42 2.45-1.53 2.94-.19.22 1.05.24 2.17.4 3.25l-.03-.32c.51 3.95 1.43 7.88 2.69 11.67v-.02c.3.76.61 1.53.94 2.28.74 1.98-2.08 3.06-2.89 1.22Zm90.98-10.2h-.21c-.42-.01-.83-.02-1.25-.04-1.01-1.78 1.31-2.41 2.72-3.08 3-1.43 5.96-2.94 8.97-4.37 1.01-.48 2.01-.96 3.01-1.45 1.62-.6 3.28-2.3 5.08-1.48 1.34.78 2.22 2.15 3.42 3.12 1.04.87.35 2.72-1 2.72-1.59-.13-2.39-1.92-3.58-2.81-3.71 1.9-7.5 3.62-11.22 5.49-1.33.66-2.66 1.32-4.01 1.93q-.975-.045-1.95-.03Z" class="fill-fore"/><path d="M140.88 95.71c-.84-3.59-3.15-6.51-5.41-9.36-.45-.58-.91-1.15-1.35-1.73-.87-1.26-1.94-2.34-3.01-3.42-.96-.97-1.91-1.93-2.73-3.03-.11-.12-.2-.25-.28-.4.22-2.45.39-4.91.18-7.36.2-3.72.07-7.46-.53-11.15-.66-4.02-2.04-7.8-3.42-11.6-.54-1.49-1.09-2.98-1.59-4.49-.13-.32-.29-.73-.47-1.22-.57-1.53-1.37-3.66-2.34-4.91.09-.06.18-.11.27-.17 3.07-1.64 5.77-3.91 8.02-6.56.29-.42.79-.97 1.36-1.58 1.95-2.12 4.67-5.07 1.92-6.51-6.26-1.25-11.8-4.64-17.2-7.94h-.02c-.27-.18-.54-.34-.81-.51-3.67-2.27-7.6-4.05-11.53-5.81-.55-.25-1.1-.49-1.65-.74-3.39-1.53-6.8-3.06-10.38-4.1C75.5-.59 60.11-.3 45.76 3.53 35.51 6.67 26.31 13.1 19.41 21.26c-3.55 4.35-6.1 9.33-8.21 14.52-.28.65-.52 1.33-.78 2h.17C3.2 56.32 5.62 77.24 15.77 94.24h.01c1.61 2.9 3.46 5.67 5.3 8.45 4.19 6.3 8.36 12.58 9.75 20.19 1.6 6.57 0 12.97-2.85 18.87-2.89-.99-5.91-1.46-8.94-.77-5.74 1.13-12.78 8.43-7.79 13.96 2.44 2.62 6.76 3.3 9.9 1.59 3.74-2.54 6.57-6.69 8.75-10.6 3.99 1.79 7.48 4.47 10.94 7.11l.15.12c4 3.11 7.95 6.3 11.63 9.79 8.1 7.81 16.93 15.95 28.5 17.67 3.18.58 6.43.88 9.68.88 2.13 0 4.26-.13 6.37-.4.39-.11.97-.19 1.61-.28 2.11-.29 4.95-.68 4.47-2.7-.22-.81-1.11-1.34-1.93-1.1-8.41 2.27-17.56 1.6-25.78-1.12-7.35-2.67-13.2-8.15-18.83-13.42l-.56-.53c-6.82-6.35-14.01-12.45-21.95-17.35-1.08-.59-2.18-1.15-3.29-1.66 2.05-4.21 3.49-8.67 3.67-13.41.13-7.39-2.41-14.59-5.96-20.98-1.4-2.33-2.92-4.59-4.45-6.85-2.33-3.47-4.67-6.93-6.58-10.66-.06-.13-.13-.26-.19-.39l-.04.03c-1.72-3.84-3.67-7.62-5.17-11.55v.02l-.03-.12.02.05c-.13-.36-.23-.73-.31-1.1l.02.05c0-.05-.03-.1-.05-.15s-.04-.08-.05-.1c.02.03.03.07.04.1-.52-1.23-.72-2.56-1.02-3.85l.06.27c-.04-.17-.07-.35-.11-.52-.07-.32-.16-.64-.22-.97l.06.29c-.1-.54-.24-1.07-.33-1.6l.04.28c-.24-1.12-.55-2.22-.71-3.35-1.11-10.51.73-21.14 4.37-31 2.82-7.67 7.26-14.73 13.57-20.01C35.93 9.93 46.62 5.31 57.83 4.43c10.98-1.51 22.31-.91 32.95 2.27 6.98 2.72 13.93 5.7 20.44 9.41l1.89 1.14c4.96 3.01 10.01 6.07 15.63 7.56l-.47.57c-2.24 2.73-4.51 5.49-7.48 7.45q-.45.27-.9.57c-1.48.96-3.05 1.98-4.82 1.36-5.52-1.21-11.1-2.31-16.75-2.65-9.89-1.04-10.04 1.8-6.46 10.04.44 1.18 1.14 2.36 1.85 3.55 1.68 2.82 3.4 5.7 1.71 8.84-1.63 2.9-4.37 4.78-7.08 6.64-1.11.76-2.22 1.52-3.24 2.35a25.7 25.7 0 0 0-5.99 6.24c-4.98.12-9.96.17-14.94.02-3.55-.03-7.09.18-10.62.48-1.24.13-2.49.28-3.7.57-3.73 0-7.33 1.19-9.71 4.36-2.91 3.7-3.02 8.82-2.18 13.26.96 4.73 3.63 8.96 6.5 12.76 3.21 3.74 6.97 7.43 11.8 8.88 2.67 1.07 4.71-.79 5.81-3.08.95 6.33 2.24 12.93 5.94 18.29 5.72 7.39 14.23 12.46 22.88 15.72 1.07.3 2.17.63 3.28.95h.01c1.44.43 2.91.86 4.4 1.27-1.53 1.52-2.94 4.13-3.48 5.13-1.01 1.95-1.63 4.02-2.25 6.1-1.18 5.62-5.3 9.85-8.06 14.72 0 .65.31 1.17.63 1.72.25.15.69.41 1 .31.46.04.87-.27 1.15-.62 2.9-4.92 7.04-9.25 8.2-15.01.94-3.19 2.04-6.43 4.14-9.06.37-.45.76-.9 1.18-1.31.43-.27.84-.62 1.01-1.09 3.23.76 6.5 1.3 9.7 1.3 4.27 0 8.42-.96 12.17-3.62 6.35-4.51 6.23-12.49 5.93-19.48-.08-1.57.94-2.55 1.88-3.45 1.33-1.27 2.49-2.38.14-4.8 2.56-2.21 2.1-3.53 1.54-5.09-.4-1.12-.84-2.36-.25-4.15.27.03.53.04.79.04 4.77 0 8.07-4.07 6.85-9.22Zm-114.1 48.98c-.28.56-.57 1.11-.91 1.63-.25.4-.48.83-.81 1.54-2.01 2.97-4.9 6.43-7.21 6.47-2.24.16-5-1.03-5.18-3.53.13-2.25 2.04-4.01 3.74-5.3 1.69-1.18 3.67-1.68 5.68-1.68 1.5 0 3.02.28 4.43.76.02-.01.24.11.26.11m61.4-79.54c5.58-3.75 13.77-9.28 10.34-17.06-.56-1.15-1.17-2.28-1.79-3.42-1.64-3.02-3.28-6.05-3.88-9.47 5.73-.42 11.51.65 17.15 1.7l.87.16c.66.12 1.29.27 1.9.42 1.41.34 2.73.65 4.07.57.11.4.37.73.63 1.07.25.32.5.65.63 1.04 2.49 5.92 4.75 12.03 6.31 18.27.67 3.36.9 6.79.82 10.21.08.08.12.18.13.29-.18.98-2.13.45-2.88.54-.76-.06-1.53-.05-2.29-.03-4.72.07-9.58.09-14.36-.05h-.02c-4.09-.1-8.18-.19-12.27-.04-2.29.06-4.59.13-6.88.2h-.01c-1.16.04-2.32.07-3.47.11 1.47-1.71 3.16-3.23 5.02-4.51Zm35.69 7.9.05.02h.04v-.03l.95.14h.05l-.03 4.79v.28-.02.16c-.06.65-.11 1.31-.15 1.96l-.18 1.61c-.31 2.89-.62 5.82-1.79 8.48-1.88-2.29-1.15-6.87-.65-10l.15-.94c.22-.97.46-1.94.72-2.9.28-1.04.55-2.08.77-3.13l.07-.31.06-.3Zm-5.27 2.85c0-.14-.02-.27-.05-.41.55-.18 1.1-.36 1.65-.55l-.1.41c-.4 1.54-.79 3.08-1.09 4.64l-.07.49c-.08.53-.15 1.08-.22 1.64-.31-.1-.61-.21-.92-.31l-.29-.1h-.02c.81-1.81 1.27-3.83 1.11-5.8ZM67.47 73c1.94.02 3.88.05 5.82.03 1.34-.02 2.68-.05 4.02-.08-1.71 3.57-2.52 7.54-2.07 11.54-2.29.35-4.59.03-6.83-.48-1.51-4.69-4.92-8.77-9.33-10.97 2.79-.09 5.59-.06 8.38-.03Zm63.36 28.16c-.72-.2-1.73-.04-2.74.12-2.1.34-4.21.67-3.8-2.16.04-.24.14-.46.24-.69.18-.42.35-.83.2-1.3-.78-2.01-3.01-1.15-3.33.71-1.08 2.89.7 6.61 3.97 6.77.91.12 1.8-.02 2.69-.16.72-.11 1.43-.23 2.14-.2-.01.05-.03.1-.04.15-.65 2.16-.24 4.37.63 6.4-.02 0-.05.02-.07.03h.04c-.43.15-.75.48-1.07.8-.12.12-.24.24-.37.35-.56.47-1.23.8-1.92 1.05-1.31.42-2.66.69-4.01.96-2.06.41-4.13.82-6.03 1.77-.78.32-1.18 1.28-.84 2.06.36.71.83.94 1.33.94s1.06-.24 1.61-.47c.24-.1.47-.2.7-.28 1.17-.4 2.39-.67 3.6-.91l.48-.09c1.66-.31 3.38-.62 4.93-1.3.18.26.41.52.7.78l-.29.28c-1.05.98-2.16 2.01-2.47 3.46-.4 1.89-.33 3.82-.25 5.75.08 2.05.15 4.1-.33 6.11-.95 6.26-6.95 9.9-12.9 10.22-5.21.27-10.3-1.03-15.3-2.36-6.73-1.63-13.13-4.32-18.82-8.3-3.48-2.41-6.87-5.12-9.27-8.65-2.14-3.32-3.21-7.21-4.13-11.02-.32-1.4-.52-2.84-.72-4.27-.26-1.86-.52-3.72-1.03-5.51-.35-.9-1.38-1.46-2.3-1.06-.93.45-1.33 1.42-1.72 2.36-.17.42-.35.84-.57 1.21-.17.28-.32.58-.47.87-.59 1.16-1.09 2.16-2.72 1.33-3.65-1.31-6.49-4.13-9.05-6.94-3.93-4.8-7.31-10.7-6.83-17.11.3-6.16 4.22-8.73 8.84-8.89.12.03.24.04.37.04.11-.02.21-.03.32-.05 3.12.04 6.49 1.13 9.22 2.9 2.07 1.45 3.8 3.43 5 5.66.26.47.45.99.63 1.53.36 1.02.72 2.05 1.65 2.65 2.58.94 9.31 1.94 11.36-.15.55-.71.42-1.57.3-2.41-.05-.28-.08-.57-.1-.86-.08-1.44.04-2.88.32-4.29.4-2.2 1.2-4.26 2.3-6.15l4.06-.12c4.46-.13 8.92-.27 13.38-.32 2.35-.05 4.72.08 7.07.11 3.03.07 6.05.14 9.08.11 1.07-.02 2.13-.07 3.2-.15-1 .32-2 .63-3.01.94l-1.43.44c-.28.09-.59.17-.93.27-2.78.78-6.93 1.96-3.65 5.12 2.61 3.16 5.9 5 9.77 6.06-.13 3.41.47 6.78 3.5 8.71.34.12.65.17.95.17 3.43 0 4.3-7.46 4.71-11.03.04-.37.08-.69.11-.96.29.3.58.59.87.88.57.56 1.12 1.13 1.66 1.72.61.8 1.26 1.59 1.9 2.38 2.09 2.56 4.19 5.15 5.41 8.23 1.73 5.4-1.88 7.43-6.71 5.76Zm-19.38-23.49 2.18-.66c.62-.19 1.24-.37 1.86-.56.02.66-.09 1.3-.21 1.94-.15.68-.34 1.36-.64 2-1.2-.74-2.28-1.66-3.2-2.71Z" class="fill-fore"/></svg>